<?xml version="1.0" encoding="UTF-8" standalone="no"?>
<!-- Created with Inkscape (http://www.inkscape.org/) -->

<svg
   width="425mm"
   height="117mm"
   viewBox="0 0 425 117"
   version="1.1"
   id="svg1"
   inkscape:version="1.4 (e7c3feb1, 2024-10-09)"
   sodipodi:docname="football.svg"
   xmlns:inkscape="http://www.inkscape.org/namespaces/inkscape"
   xmlns:sodipodi="http://sodipodi.sourceforge.net/DTD/sodipodi-0.dtd"
   xmlns="http://www.w3.org/2000/svg"
   xmlns:svg="http://www.w3.org/2000/svg">
  <sodipodi:namedview
     id="namedview1"
     pagecolor="#ffffff"
     bordercolor="#000000"
     borderopacity="0.25"
     inkscape:showpageshadow="2"
     inkscape:pageopacity="0.0"
     inkscape:pagecheckerboard="0"
     inkscape:deskcolor="#d1d1d1"
     inkscape:document-units="mm"
     inkscape:zoom="0.37772166"
     inkscape:cx="537.43278"
     inkscape:cy="203.85381"
     inkscape:window-width="1512"
     inkscape:window-height="839"
     inkscape:window-x="0"
     inkscape:window-y="33"
     inkscape:window-maximized="0"
     inkscape:current-layer="layer1" />
  <defs
     id="defs1" />
  <g
     inkscape:label="Layer 1"
     inkscape:groupmode="layer"
     id="layer1">
    <g
       id="g6"
       transform="matrix(0.99862787,0,0,0.99862787,62.533932,186.49149)">
      <path
         id="rect1"
         style="fill:#ffffff;stroke:#000000;stroke-width:1.18082;stroke-linecap:round;stroke-linejoin:round"
         d="m -8.714363,-186.15732 357.150943,0.14461 c 7.72115,0.003 13.93711,5.48102 13.93711,12.28927 v 81.339931 c 0,6.808253 -6.21596,12.293675 -13.93711,12.289266 L -8.714363,-80.298192 c -7.721157,-0.0044 0.022717,-5.277064 0.022717,-12.085317 v -81.339931 c 0,-6.80825 -7.743875,-12.43701 -0.022717,-12.43388 z"
         sodipodi:nodetypes="sssssssss" />
      <path
         id="rect1-8"
         style="fill:#aac85a;fill-opacity:1;stroke:#000000;stroke-width:1.19507;stroke-linecap:round;stroke-linejoin:round"
         d="m -8.9889545,-182.69155 357.8955445,0.32816 c 5.26668,0.005 9.50665,3.61329 9.50665,8.10156 v 82.416581 c 0,4.488264 -4.23997,8.101859 -9.50665,8.10156 l -357.8955445,-0.0204 c -5.2666915,-3e-4 10.3976944,-3.592899 10.3976944,-8.081163 v -82.416578 c 0,-4.48827 -15.6643819,-8.43456 -10.3976944,-8.42972 z"
         sodipodi:nodetypes="sssssssss" />
      <path
         id="path1-6"
         style="fill:#ffffff;stroke:#000000;stroke-linecap:round;stroke-linejoin:round"
         d="m 43.810806,-133.22782 a 52.965332,52.965332 0 0 1 -52.965329,52.96533 52.965332,52.965332 0 0 1 -52.965332,-52.96533 52.965332,52.965332 0 0 1 52.965332,-52.96534 52.965332,52.965332 0 0 1 52.965329,52.96534 z" />
      <path
         id="path1"
         style="fill:#c84e4c;stroke:#000000;stroke-linecap:round;stroke-linejoin:round"
         d="m 40.345786,-133.22782 a 49.500309,49.500309 0 0 1 -49.500309,49.5003 49.500309,49.500309 0 0 1 -49.500309,-49.5003 49.500309,49.500309 0 0 1 49.500309,-49.50031 49.500309,49.500309 0 0 1 49.500309,49.50031 z" />
      <text
         xml:space="preserve"
         style="font-size:24.7159px;font-family:'Jam Session';-inkscape-font-specification:'Jam Session';text-align:center;writing-mode:lr-tb;direction:ltr;text-anchor:middle;fill:#ffffff;fill-opacity:1;stroke:#000000;stroke-width:0.86039;stroke-linecap:round;stroke-linejoin:round;stroke-dasharray:none;stroke-opacity:1"
         x="-9.6394567"
         y="-126.80685"
         id="text2"
         transform="skewY(-12.260654)"><tspan
           id="tspan2"
           style="font-style:normal;font-variant:normal;font-weight:bold;font-stretch:condensed;font-family:'DIN Condensed';-inkscape-font-specification:'DIN Condensed,  Bold Condensed';fill:#ffffff;fill-opacity:1;stroke:#000000;stroke-width:0.86039;stroke-dasharray:none;stroke-opacity:1"
           x="-9.6394577"
           y="-126.80685"
           sodipodi:role="line">GENEVA'S</tspan></text>
      <text
         xml:space="preserve"
         style="font-weight:bold;font-stretch:condensed;font-size:65.8919px;font-family:'DIN Condensed';-inkscape-font-specification:'DIN Condensed,  Bold Condensed';text-align:center;writing-mode:lr-tb;direction:ltr;text-anchor:middle;fill:#3c5a96;fill-opacity:1;stroke:#000000;stroke-width:1.49761;stroke-linecap:round;stroke-linejoin:round;stroke-dasharray:none;stroke-opacity:1"
         x="192.43375"
         y="-123.50566"
         id="text1"><tspan
           sodipodi:role="line"
           id="tspan1"
           style="font-style:normal;font-variant:normal;font-weight:normal;font-stretch:normal;font-family:'00433';-inkscape-font-specification:'00433, ';fill:#3c5a96;fill-opacity:1;stroke:#000000;stroke-width:1.49761;stroke-dasharray:none;stroke-opacity:1"
           x="192.43375"
           y="-123.50566">NEED NEED</tspan></text>
      <text
         xml:space="preserve"
         style="font-style:normal;font-variant:normal;font-weight:normal;font-stretch:normal;font-size:64.6331px;font-family:'00433';-inkscape-font-specification:'00433, ';text-align:center;writing-mode:lr-tb;direction:ltr;text-anchor:middle;fill:#3c5a96;fill-opacity:1;stroke:#000000;stroke-width:1.49761;stroke-linecap:round;stroke-linejoin:round;stroke-dasharray:none;stroke-opacity:1"
         x="287.16528"
         y="-71.312332"
         id="text3"><tspan
           sodipodi:role="line"
           id="tspan3"
           style="stroke:#000000;stroke-width:1.49761;stroke-dasharray:none;stroke-opacity:1"
           x="287.16528"
           y="-71.312332">GOT</tspan></text>
      <rect
         style="fill:#ffffff;fill-opacity:1;stroke:none;stroke-width:0.980093;stroke-linecap:round;stroke-linejoin:round;stroke-dasharray:none;stroke-opacity:1"
         id="rect5"
         width="23.495039"
         height="2.3527141"
         x="-9.9911003"
         y="-185.62515"
         rx="11.57423"
         ry="0.00020006701" />
      <rect
         style="fill:#ffffff;fill-opacity:1;stroke:none;stroke-width:0.980093;stroke-linecap:round;stroke-linejoin:round;stroke-dasharray:none;stroke-opacity:1"
         id="rect6"
         width="23.495039"
         height="2.3527141"
         x="-10.455452"
         y="-83.158249"
         rx="11.57423"
         ry="0.00020006701" />
    </g>
  </g>
</svg>
