<?xml version="1.0" encoding="UTF-8" standalone="no"?>
<!-- Created with Inkscape (http://www.inkscape.org/) -->

<svg
   width="210mm"
   height="297mm"
   viewBox="0 0 210 297"
   version="1.1"
   id="svg1"
   inkscape:version="1.4 (e7c3feb1, 2024-10-09)"
   sodipodi:docname="neon_nng.svg"
   xmlns:inkscape="http://www.inkscape.org/namespaces/inkscape"
   xmlns:sodipodi="http://sodipodi.sourceforge.net/DTD/sodipodi-0.dtd"
   xmlns:xlink="http://www.w3.org/1999/xlink"
   xmlns="http://www.w3.org/2000/svg"
   xmlns:svg="http://www.w3.org/2000/svg">
  <sodipodi:namedview
     id="namedview1"
     pagecolor="#ffffff"
     bordercolor="#000000"
     borderopacity="0.25"
     inkscape:showpageshadow="2"
     inkscape:pageopacity="0.0"
     inkscape:pagecheckerboard="0"
     inkscape:deskcolor="#d1d1d1"
     inkscape:document-units="mm"
     inkscape:zoom="0.125"
     inkscape:cx="-424"
     inkscape:cy="2632"
     inkscape:window-width="1512"
     inkscape:window-height="839"
     inkscape:window-x="0"
     inkscape:window-y="33"
     inkscape:window-maximized="1"
     showborder="true"
     inkscape:current-layer="layer1" />
  <defs
     id="defs1">
    <linearGradient
       id="linearGradient181"
       inkscape:collect="always">
      <stop
         style="stop-color:#1a1a1a;stop-opacity:0.61602211;"
         offset="0"
         id="stop181" />
      <stop
         style="stop-color:#1a1a1a;stop-opacity:0.30939227;"
         offset="0.78043389"
         id="stop183" />
      <stop
         style="stop-color:#1a1a1a;stop-opacity:1;"
         offset="1"
         id="stop182" />
    </linearGradient>
    <filter
       inkscape:collect="always"
       style="color-interpolation-filters:sRGB"
       id="filter177"
       x="-0.047885747"
       y="-0.32679073"
       width="1.0957715"
       height="1.6535815">
      <feGaussianBlur
         inkscape:collect="always"
         stdDeviation="1.4072077"
         id="feGaussianBlur177" />
    </filter>
    <filter
       inkscape:collect="always"
       style="color-interpolation-filters:sRGB"
       id="filter178"
       x="-0.031705945"
       y="-0.21637345"
       width="1.0634119"
       height="1.4327469">
      <feGaussianBlur
         inkscape:collect="always"
         stdDeviation="0.79484262"
         id="feGaussianBlur178" />
    </filter>
    <filter
       inkscape:collect="always"
       style="color-interpolation-filters:sRGB"
       id="filter179"
       x="-0.010952989"
       y="-0.074747407"
       width="1.021906"
       height="1.1494948">
      <feGaussianBlur
         inkscape:collect="always"
         stdDeviation="0.35180193"
         id="feGaussianBlur179" />
    </filter>
    <radialGradient
       inkscape:collect="always"
       xlink:href="#linearGradient181"
       id="radialGradient182"
       cx="-146.58064"
       cy="55.14285"
       fx="-146.58064"
       fy="55.14285"
       r="90.859467"
       gradientTransform="matrix(1.1426835,0,0,0.40823244,31.177923,27.404639)"
       gradientUnits="userSpaceOnUse" />
    <filter
       inkscape:collect="always"
       style="color-interpolation-filters:sRGB"
       id="filter183"
       x="-0.0045134064"
       y="-0.03080122"
       width="1.0090268"
       height="1.0616024">
      <feGaussianBlur
         inkscape:collect="always"
         stdDeviation="0.12664869"
         id="feGaussianBlur183" />
    </filter>
    <radialGradient
       inkscape:collect="always"
       xlink:href="#linearGradient181"
       id="radialGradient182-3"
       cx="-146.58064"
       cy="55.142849"
       fx="-146.58064"
       fy="55.142849"
       r="90.859467"
       gradientTransform="matrix(1.1426835,0,0,0.6266329,-65.231104,131.65412)"
       gradientUnits="userSpaceOnUse" />
    <filter
       inkscape:collect="always"
       style="color-interpolation-filters:sRGB"
       id="filter177-5"
       x="-0.047885749"
       y="-0.32679091"
       width="1.0957715"
       height="1.6535818">
      <feGaussianBlur
         inkscape:collect="always"
         stdDeviation="1.4072077"
         id="feGaussianBlur177-8" />
    </filter>
    <filter
       inkscape:collect="always"
       style="color-interpolation-filters:sRGB"
       id="filter179-0"
       x="-0.010952989"
       y="-0.074747407"
       width="1.021906"
       height="1.1494948">
      <feGaussianBlur
         inkscape:collect="always"
         stdDeviation="0.35180193"
         id="feGaussianBlur179-4" />
    </filter>
    <filter
       inkscape:collect="always"
       style="color-interpolation-filters:sRGB"
       id="filter183-2"
       x="-0.0045134064"
       y="-0.03080122"
       width="1.0090268"
       height="1.0616024">
      <feGaussianBlur
         inkscape:collect="always"
         stdDeviation="0.12664869"
         id="feGaussianBlur183-3" />
    </filter>
    <filter
       inkscape:collect="always"
       style="color-interpolation-filters:sRGB"
       id="filter183-2-3"
       x="-0.0045134064"
       y="-0.03080122"
       width="1.0090268"
       height="1.0616024">
      <feGaussianBlur
         inkscape:collect="always"
         stdDeviation="0.12664869"
         id="feGaussianBlur183-3-8" />
    </filter>
  </defs>
  <g
     inkscape:label="Layer 1"
     inkscape:groupmode="layer"
     id="layer1">
    <rect
       style="fill:#c81d2a;fill-opacity:1;stroke-width:3.62852;stroke-dasharray:10.8856, 10.8856"
       id="rect4"
       width="207.53717"
       height="74.144241"
       x="-240.08594"
       y="12.843618" />
    <rect
       style="fill:url(#radialGradient182);stroke-width:3.63045;stroke-dasharray:10.8913, 10.8913"
       id="rect179"
       width="207.64722"
       height="74.183563"
       x="-240.14096"
       y="12.823957" />
    <g
       id="g189"
       transform="translate(-2.6458285,1.8520835)">
      <path
         style="font-size:2.11667px;font-family:'Jam Session';-inkscape-font-specification:'Jam Session';text-align:center;text-anchor:middle;fill:#aa322a;fill-opacity:0.952941;stroke:#e6322a;stroke-width:5;stroke-linecap:round;stroke-linejoin:round;stroke-dasharray:none;stroke-dashoffset:0;stroke-opacity:1;filter:url(#filter177)"
         d="m -186.70354,39.349935 v 17.56588 H -187.54 q 0,-3.569 -0.86413,-6.859 -0.83647,-3.29014 -2.3421,-5.7716 -1.50563,-2.5094 -3.45729,-3.76422 v 1.89607 q 1.56135,1.19871 2.7324,3.4295 1.19871,2.20273 1.86815,5.0745 0.66917,2.87191 0.66917,5.99475 h -0.83646 q 0,-4.23817 -1.22638,-7.86276 -1.22637,-3.65265 -3.20636,-5.54859 v 13.41135 h -0.83646 v -17.70524 q 2.56511,0.94843 4.60055,3.93138 2.06323,2.98348 2.8997,6.85901 v -10.65103 z m 5.57652,16.72942 h 3.68044 v 0.83646 h -4.51691 v -16.72941 h -1.39419 v 16.72941 h -0.83646 v -17.56588 h 6.71963 v 0.83647 h -3.65251 v 7.05422 h 3.17856 v 0.83647 h -3.17856 z m 9.11745,0 h 3.68045 v 0.83646 h -4.51691 v -16.72941 h -1.3942 v 16.72941 h -0.83646 v -17.56588 h 6.71964 v 0.83647 h -3.65252 v 7.05422 h 3.17857 v 0.83647 h -3.17857 z m 6.05034,-16.72942 h 2.62096 q 1.53356,0 2.76034,0.66918 1.22637,0.66917 1.92386,1.97971 0.7245,1.31069 0.7245,3.15065 v 6.10618 q 0,1.7845 -0.66917,3.06712 -0.64151,1.25404 -1.75658,1.92387 -1.11572,0.66917 -2.53718,0.66917 h -0.83647 v -16.72941 h -1.39419 v 16.72941 h -0.83647 z m 3.06712,16.72942 q 1.84022,0 2.98334,-1.25404 1.1434,-1.25535 1.1434,-3.569 v -6.10619 q 0,-2.31417 -1.1434,-3.54094 -1.11572,-1.22638 -2.98334,-1.3942 z m 23.33735,-16.72942 v 17.56588 h -0.83647 q 0,-3.569 -0.86412,-6.859 -0.83647,-3.29014 -2.3421,-5.7716 -1.50564,-2.5094 -3.4573,-3.76422 v 1.89607 q 1.56136,1.19871 2.73241,3.4295 1.19871,2.20273 1.86814,5.0745 0.66918,2.87191 0.66918,5.99475 h -0.83647 q 0,-4.23817 -1.22637,-7.86276 -1.22638,-3.65265 -3.20636,-5.54859 v 13.41135 h -0.83647 v -17.70524 q 2.56512,0.94843 4.60056,3.93138 2.06323,2.98348 2.89969,6.85901 v -10.65103 z m 5.57638,16.72942 h 3.68044 v 0.83646 h -4.51691 v -16.72941 h -1.39406 v 16.72941 h -0.83646 v -17.56588 h 6.71964 v 0.83647 h -3.65265 v 7.05422 h 3.17856 v 0.83647 h -3.17856 z m 9.11744,0 h 3.68058 v 0.83646 h -4.51703 v -16.72941 h -1.39406 v 16.72941 h -0.83646 v -17.56588 h 6.71962 v 0.83647 h -3.65265 v 7.05422 h 3.1787 v 0.83647 h -3.1787 z m 6.05047,-16.72942 h 2.62097 q 1.53356,0 2.76033,0.66918 1.22637,0.66917 1.92386,1.97971 0.7245,1.31069 0.7245,3.15065 v 6.10618 q 0,1.7845 -0.66917,3.06712 -0.64151,1.25404 -1.75657,1.92387 -1.11573,0.66917 -2.53732,0.66917 h -0.83646 v -16.72941 h -1.39407 v 16.72941 h -0.83646 z m 3.06699,16.72942 q 1.84035,0 2.98348,-1.25404 1.14338,-1.25535 1.14338,-3.569 v -6.10619 q 0,-2.31417 -1.14338,-3.54094 -1.11573,-1.22638 -2.98348,-1.3942 z m 23.08654,-8.89445 v 9.59141 h -0.83646 v -8.75494 h -1.39406 v 8.89444 h -1.97972 q -1.14339,0 -2.09116,-0.52954 -0.94844,-0.5572 -1.50564,-1.50563 -0.5572,-0.94843 -0.5572,-2.09116 v -8.69936 q 0,-2.23053 1.19871,-3.54094 1.19871,-1.33835 3.23441,-1.33835 0.9761,0 1.8123,0.44656 0.86413,0.41888 1.36627,1.14338 0.50188,0.69684 0.50188,1.53343 h -0.83647 q 0,-0.92077 -0.86412,-1.58928 -0.83647,-0.69683 -1.97959,-0.69683 -0.69684,0 -1.25404,0.19495 v 15.69773 q 0.50188,0.13963 0.97609,0.13963 h 1.14339 v -8.05798 h -1.14339 v -0.83647 z m -7.52817,5.60431 q 0,0.89179 0.38991,1.61721 0.41889,0.7245 1.11572,1.17105 v -14.94491 q -0.7245,0.50188 -1.11572,1.39419 -0.38991,0.89179 -0.38991,2.06324 z m 14.052581,-13.71801 q 2.202733,0 3.457433,1.31068 1.25535,1.31068 1.25535,3.51315 v 8.61558 q 0,1.28302 -0.61384,2.31418 -0.58487,1.03141 -1.67293,1.64512 -1.05908,0.58619 -2.425753,0.58619 -1.310671,0 -2.397821,-0.58619 -1.05908,-0.61384 -1.70085,-1.64512 -0.61385,-1.03143 -0.61385,-2.31418 v -8.61558 q 0,-2.20273 1.28302,-3.51315 1.28302,-1.31068 3.429501,-1.31068 z m -1.255351,16.9523 q 0.557201,0.19495 1.255351,0.19495 0.669173,0 1.254043,-0.16729 v -16.00439 q -0.641513,-0.13963 -1.254043,-0.13963 -0.66917,0 -1.255351,0.16729 z m 5.130354,-12.12873 q 0,-1.22638 -0.47421,-2.11896 -0.44656,-0.92077 -1.31068,-1.39419 v 15.30729 q 0.83646,-0.47421 1.31068,-1.31068 0.47421,-0.83646 0.47421,-1.86802 z m -7.751324,8.61558 q 0,1.00376 0.47422,1.84022 0.47421,0.8088 1.31068,1.31068 v -15.25144 q -0.86413,0.47422 -1.33834,1.36613 -0.44656,0.89179 -0.44656,2.11909 z m 17.705255,-13.16042 v 0.83647 h -2.67669 v 16.72941 h -0.83646 v -16.72941 h -1.39407 v 16.72941 h -0.83646 v -16.72941 h -2.676821 v -0.83647 z"
         id="text4"
         aria-label="NEED NEED GOT" />
      <path
         style="font-size:2.11667px;font-family:'Jam Session';-inkscape-font-specification:'Jam Session';text-align:center;text-anchor:middle;fill:#c85a64;fill-opacity:1;stroke:#ee7671;stroke-width:4;stroke-linecap:round;stroke-linejoin:round;stroke-dasharray:none;stroke-dashoffset:0;stroke-opacity:1;filter:url(#filter178)"
         d="m -186.92384,39.313736 v 17.63885 h -0.83994 q 0,-3.58382 -0.86772,-6.88749 -0.83994,-3.30381 -2.35183,-5.79558 -1.51188,-2.51982 -3.47165,-3.77985 v 1.90394 q 1.56784,1.20369 2.74375,3.44375 1.20369,2.21188 1.87591,5.09558 0.67195,2.88384 0.67195,6.01965 h -0.83993 q 0,-4.25577 -1.23148,-7.89542 -1.23146,-3.66782 -3.21968,-5.57164 v 13.46706 h -0.83993 v -17.77879 q 2.57576,0.95237 4.61966,3.94771 2.0718,2.99588 2.91175,6.88751 v -10.69528 z m 5.59968,16.79892 h 3.69573 v 0.83993 h -4.53567 v -16.7989 h -1.39998 v 16.7989 h -0.83994 v -17.63885 h 6.74755 v 0.83995 h -3.66769 v 7.08352 h 3.19177 v 0.83995 h -3.19177 z m 9.15533,0 h 3.69574 v 0.83993 h -4.53568 v -16.7989 h -1.39999 v 16.7989 h -0.83993 v -17.63885 h 6.74755 v 0.83995 h -3.66769 v 7.08352 h 3.19177 v 0.83995 h -3.19177 z m 6.07547,-16.79892 h 2.63185 q 1.53993,0 2.77181,0.67196 1.23146,0.67195 1.93185,1.98794 0.72751,1.31613 0.72751,3.16373 v 6.13155 q 0,1.79191 -0.67195,3.07986 -0.64418,1.25925 -1.76388,1.93186 -1.12035,0.67195 -2.54772,0.67195 h -0.83994 v -16.7989 h -1.39998 v 16.7989 h -0.83995 z m 3.07986,16.79892 q 1.84787,0 2.99574,-1.25925 1.14815,-1.26057 1.14815,-3.58383 v -6.13155 q 0,-2.32379 -1.14815,-3.55565 -1.12036,-1.23148 -2.99574,-1.39999 z m 23.4343,-16.79892 v 17.63885 h -0.83994 q 0,-3.58382 -0.86771,-6.88749 -0.83995,-3.30381 -2.35183,-5.79558 -1.5119,-2.51982 -3.47167,-3.77985 v 1.90394 q 1.56785,1.20369 2.74376,3.44375 1.20369,2.21188 1.87591,5.09558 0.67196,2.88384 0.67196,6.01965 h -0.83995 q 0,-4.25577 -1.23146,-7.89542 -1.23148,-3.66782 -3.21968,-5.57164 v 13.46706 h -0.83995 v -17.77879 q 2.57578,0.95237 4.61967,3.94771 2.0718,2.99588 2.91174,6.88751 v -10.69528 z m 5.59955,16.79892 h 3.69572 v 0.83993 h -4.53567 v -16.7989 h -1.39985 v 16.7989 h -0.83994 v -17.63885 h 6.74756 v 0.83995 h -3.66782 v 7.08352 h 3.19176 v 0.83995 h -3.19176 z m 9.15531,0 h 3.69587 v 0.83993 h -4.53579 v -16.7989 h -1.39986 v 16.7989 h -0.83993 v -17.63885 h 6.74753 v 0.83995 h -3.66782 v 7.08352 h 3.19191 v 0.83995 h -3.19191 z m 6.0756,-16.79892 h 2.63186 q 1.53993,0 2.7718,0.67196 1.23146,0.67195 1.93185,1.98794 0.72751,1.31613 0.72751,3.16373 v 6.13155 q 0,1.79191 -0.67195,3.07986 -0.64417,1.25925 -1.76387,1.93186 -1.12036,0.67195 -2.54786,0.67195 h -0.83993 v -16.7989 h -1.39986 v 16.7989 h -0.83994 z m 3.07974,16.79892 q 1.84799,0 2.99587,-1.25925 1.14813,-1.26057 1.14813,-3.58383 v -6.13155 q 0,-2.32379 -1.14813,-3.55565 -1.12037,-1.23148 -2.99587,-1.39999 z m 23.18244,-8.9314 v 9.63125 h -0.83993 v -8.79131 h -1.39986 v 8.93139 h -1.98794 q -1.14814,0 -2.09985,-0.53174 -0.95238,-0.55951 -1.51189,-1.51188 -0.55952,-0.95237 -0.55952,-2.09985 v -8.7355 q 0,-2.23979 1.20369,-3.55565 1.20369,-1.34391 3.24785,-1.34391 0.98015,0 1.81983,0.44842 0.86772,0.42062 1.37194,1.14813 0.50397,0.69973 0.50397,1.5398 h -0.83995 q 0,-0.9246 -0.86771,-1.59588 -0.83994,-0.69973 -1.98781,-0.69973 -0.69973,0 -1.25925,0.19576 v 15.76294 q 0.50397,0.14021 0.98015,0.14021 h 1.14814 v -8.09145 h -1.14814 v -0.83995 z m -7.55944,5.62759 q 0,0.8955 0.39153,1.62393 0.42063,0.72751 1.12035,1.17591 v -15.00699 q -0.72751,0.50397 -1.12035,1.39998 -0.39153,0.8955 -0.39153,2.07181 z m 14.11095,-13.775 q 2.21188,0 3.4718,1.31613 1.26056,1.31612 1.26056,3.52774 v 8.65137 q 0,1.28835 -0.61639,2.3238 -0.5873,1.03569 -1.67988,1.65195 -1.063483,0.58863 -2.43583,0.58863 -1.31611,0 -2.40778,-0.58863 -1.06348,-0.61639 -1.70791,-1.65195 -0.6164,-1.03572 -0.6164,-2.3238 v -8.65137 q 0,-2.21188 1.28835,-3.52774 1.28835,-1.31613 3.44374,-1.31613 z m -1.26056,17.02273 q 0.55951,0.19576 1.26056,0.19576 0.671947,0 1.259247,-0.16799 v -16.07087 q -0.64417,-0.14021 -1.259247,-0.14021 -0.67195,0 -1.26056,0.16798 z m 5.15166,-12.17912 q 0,-1.23147 -0.47618,-2.12776 -0.44841,-0.9246 -1.31612,-1.39998 v 15.37088 q 0.83993,-0.47618 1.31612,-1.31613 0.47618,-0.83993 0.47618,-1.87578 z m -7.78352,8.65137 q 0,1.00793 0.47619,1.84787 0.47618,0.81216 1.31613,1.31612 v -15.3148 q -0.86772,0.47619 -1.3439,1.37181 -0.44842,0.89549 -0.44842,2.12789 z m 17.778806,-13.21509 v 0.83995 h -2.687812 v 16.7989 h -0.839935 v -16.7989 h -1.399861 v 16.7989 h -0.839938 v -16.7989 h -2.68794 v -0.83995 z"
         id="path36"
         aria-label="NEED NEED GOT" />
      <path
         style="font-size:2.11667px;font-family:'Jam Session';-inkscape-font-specification:'Jam Session';text-align:center;text-anchor:middle;mix-blend-mode:normal;fill:#dca05d;fill-opacity:1;stroke:#f6bab8;stroke-width:1;stroke-linecap:round;stroke-linejoin:round;stroke-dasharray:none;stroke-dashoffset:0;stroke-opacity:1;filter:url(#filter179)"
         d="m -186.70354,39.349936 v 17.56588 H -187.54 q 0,-3.569 -0.86413,-6.859 -0.83647,-3.29014 -2.3421,-5.7716 -1.50563,-2.5094 -3.45729,-3.76422 v 1.89607 q 1.56135,1.19871 2.7324,3.4295 1.19871,2.20273 1.86815,5.0745 0.66917,2.87191 0.66917,5.99475 h -0.83646 q 0,-4.23817 -1.22638,-7.86276 -1.22637,-3.65265 -3.20636,-5.54859 v 13.41135 h -0.83646 v -17.70524 q 2.56511,0.94843 4.60055,3.93138 2.06323,2.98348 2.8997,6.85901 v -10.65103 z m 5.57652,16.72942 h 3.68044 v 0.83646 h -4.51691 v -16.72941 h -1.39419 v 16.72941 h -0.83646 v -17.56588 h 6.71963 v 0.83647 h -3.65251 v 7.05422 h 3.17856 v 0.83647 h -3.17856 z m 9.11745,0 h 3.68045 v 0.83646 h -4.51691 v -16.72941 h -1.3942 v 16.72941 h -0.83646 v -17.56588 h 6.71964 v 0.83647 h -3.65252 v 7.05422 h 3.17857 v 0.83647 h -3.17857 z m 6.05034,-16.72942 h 2.62096 q 1.53356,0 2.76034,0.66918 1.22637,0.66917 1.92386,1.97971 0.7245,1.31069 0.7245,3.15065 v 6.10618 q 0,1.7845 -0.66917,3.06712 -0.64151,1.25404 -1.75658,1.92387 -1.11572,0.66917 -2.53718,0.66917 h -0.83647 v -16.72941 h -1.39419 v 16.72941 h -0.83647 z m 3.06712,16.72942 q 1.84022,0 2.98334,-1.25404 1.1434,-1.25535 1.1434,-3.569 v -6.10619 q 0,-2.31417 -1.1434,-3.54094 -1.11572,-1.22638 -2.98334,-1.3942 z m 23.33735,-16.72942 v 17.56588 h -0.83647 q 0,-3.569 -0.86412,-6.859 -0.83647,-3.29014 -2.3421,-5.7716 -1.50564,-2.5094 -3.4573,-3.76422 v 1.89607 q 1.56136,1.19871 2.73241,3.4295 1.19871,2.20273 1.86814,5.0745 0.66918,2.87191 0.66918,5.99475 h -0.83647 q 0,-4.23817 -1.22637,-7.86276 -1.22638,-3.65265 -3.20636,-5.54859 v 13.41135 h -0.83647 v -17.70524 q 2.56512,0.94843 4.60056,3.93138 2.06323,2.98348 2.89969,6.85901 v -10.65103 z m 5.57638,16.72942 h 3.68044 v 0.83646 h -4.51691 v -16.72941 h -1.39406 v 16.72941 h -0.83646 v -17.56588 h 6.71964 v 0.83647 h -3.65265 v 7.05422 h 3.17856 v 0.83647 h -3.17856 z m 9.11744,0 h 3.68058 v 0.83646 h -4.51703 v -16.72941 h -1.39406 v 16.72941 h -0.83646 v -17.56588 h 6.71962 v 0.83647 h -3.65265 v 7.05422 h 3.1787 v 0.83647 h -3.1787 z m 6.05047,-16.72942 h 2.62097 q 1.53356,0 2.76033,0.66918 1.22637,0.66917 1.92386,1.97971 0.7245,1.31069 0.7245,3.15065 v 6.10618 q 0,1.7845 -0.66917,3.06712 -0.64151,1.25404 -1.75657,1.92387 -1.11573,0.66917 -2.53732,0.66917 h -0.83646 v -16.72941 h -1.39407 v 16.72941 h -0.83646 z m 3.06699,16.72942 q 1.84035,0 2.98348,-1.25404 1.14338,-1.25535 1.14338,-3.569 v -6.10619 q 0,-2.31417 -1.14338,-3.54094 -1.11573,-1.22638 -2.98348,-1.3942 z m 23.08654,-8.89445 v 9.59141 h -0.83646 v -8.75494 h -1.39406 v 8.89444 h -1.97972 q -1.14339,0 -2.09116,-0.52954 -0.94844,-0.5572 -1.50564,-1.50563 -0.5572,-0.94843 -0.5572,-2.09116 v -8.69936 q 0,-2.23053 1.19871,-3.54094 1.19871,-1.33835 3.23441,-1.33835 0.9761,0 1.8123,0.44656 0.86413,0.41888 1.36627,1.14338 0.50188,0.69684 0.50188,1.53343 h -0.83647 q 0,-0.92077 -0.86412,-1.58928 -0.83647,-0.69683 -1.97959,-0.69683 -0.69684,0 -1.25404,0.19495 v 15.69773 q 0.50188,0.13963 0.97609,0.13963 h 1.14339 v -8.05798 h -1.14339 v -0.83647 z m -7.52817,5.60431 q 0,0.89179 0.38991,1.61721 0.41889,0.7245 1.11572,1.17105 v -14.94491 q -0.7245,0.50188 -1.11572,1.39419 -0.38991,0.89179 -0.38991,2.06324 z m 14.052587,-13.71801 q 2.202731,0 3.457431,1.31068 1.25535,1.31068 1.25535,3.51315 v 8.61558 q 0,1.28302 -0.61384,2.31418 -0.58487,1.03141 -1.67293,1.64512 -1.05908,0.58619 -2.425751,0.58619 -1.310667,0 -2.397817,-0.58619 -1.05908,-0.61384 -1.70085,-1.64512 -0.61385,-1.03143 -0.61385,-2.31418 v -8.61558 q 0,-2.20273 1.28302,-3.51315 1.28302,-1.31068 3.429497,-1.31068 z m -1.255347,16.9523 q 0.557197,0.19495 1.255347,0.19495 0.669171,0 1.254041,-0.16729 v -16.00439 q -0.641511,-0.13963 -1.254041,-0.13963 -0.66917,0 -1.255347,0.16729 z m 5.130348,-12.12873 q 0,-1.22638 -0.47421,-2.11896 -0.44656,-0.92077 -1.31068,-1.39419 v 15.30729 q 0.83646,-0.47421 1.31068,-1.31068 0.47421,-0.83646 0.47421,-1.86802 z m -7.751318,8.61558 q 0,1.00376 0.47422,1.84022 0.47421,0.8088 1.31068,1.31068 v -15.25144 q -0.86413,0.47422 -1.33834,1.36613 -0.44656,0.89179 -0.44656,2.11909 z m 17.70525,-13.16042 v 0.83647 h -2.676693 v 16.72941 h -0.83646 v -16.72941 h -1.39407 v 16.72941 h -0.836463 v -16.72941 h -2.676816 v -0.83647 z"
         id="path37"
         aria-label="NEED NEED GOT" />
      <path
         style="font-size:2.11667px;font-family:'Jam Session';-inkscape-font-specification:'Jam Session';text-align:center;text-anchor:middle;fill:#1a1a1a;fill-opacity:1;stroke-width:4.64703;stroke-dasharray:13.941, 13.941"
         d="m -187.51122,39.349936 v 17.56588 h -0.83646 q 0,-3.569 -0.86413,-6.859 -0.83647,-3.29014 -2.3421,-5.7716 -1.50563,-2.5094 -3.45729,-3.76422 v 1.89607 q 1.56135,1.19871 2.7324,3.4295 1.19871,2.20273 1.86815,5.0745 0.66917,2.87191 0.66917,5.99475 h -0.83646 q 0,-4.23817 -1.22638,-7.86276 -1.22637,-3.65265 -3.20636,-5.54859 v 13.41135 h -0.83646 v -17.70524 q 2.56511,0.94843 4.60055,3.93138 2.06323,2.98348 2.8997,6.85901 v -10.65103 z m 5.57652,16.72942 h 3.68044 v 0.83646 h -4.51691 v -16.72941 h -1.39419 v 16.72941 h -0.83646 v -17.56588 h 6.71963 v 0.83647 h -3.65251 v 7.05422 h 3.17856 v 0.83647 h -3.17856 z m 9.11745,0 h 3.68045 v 0.83646 h -4.51691 v -16.72941 h -1.3942 v 16.72941 h -0.83646 v -17.56588 h 6.71964 v 0.83647 h -3.65252 v 7.05422 h 3.17857 v 0.83647 h -3.17857 z m 6.05034,-16.72942 h 2.62096 q 1.53356,0 2.76034,0.66918 1.22637,0.66917 1.92386,1.97971 0.7245,1.31069 0.7245,3.15065 v 6.10618 q 0,1.7845 -0.66917,3.06712 -0.64151,1.25404 -1.75658,1.92387 -1.11572,0.66917 -2.53718,0.66917 h -0.83647 v -16.72941 h -1.39419 v 16.72941 h -0.83647 z m 3.06712,16.72942 q 1.84022,0 2.98334,-1.25404 1.1434,-1.25535 1.1434,-3.569 v -6.10619 q 0,-2.31417 -1.1434,-3.54094 -1.11572,-1.22638 -2.98334,-1.3942 z m 23.33735,-16.72942 v 17.56588 h -0.83647 q 0,-3.569 -0.86412,-6.859 -0.83647,-3.29014 -2.3421,-5.7716 -1.50564,-2.5094 -3.4573,-3.76422 v 1.89607 q 1.56136,1.19871 2.73241,3.4295 1.19871,2.20273 1.86814,5.0745 0.66918,2.87191 0.66918,5.99475 h -0.83647 q 0,-4.23817 -1.22637,-7.86276 -1.22638,-3.65265 -3.20636,-5.54859 v 13.41135 h -0.83647 v -17.70524 q 2.56512,0.94843 4.60056,3.93138 2.06323,2.98348 2.89969,6.85901 v -10.65103 z m 5.57638,16.72942 h 3.68044 v 0.83646 h -4.51691 v -16.72941 h -1.39406 v 16.72941 h -0.83646 v -17.56588 h 6.71964 v 0.83647 h -3.65265 v 7.05422 h 3.17856 v 0.83647 h -3.17856 z m 9.11744,0 h 3.68058 v 0.83646 h -4.51703 v -16.72941 h -1.39406 v 16.72941 h -0.83646 v -17.56588 h 6.71962 v 0.83647 h -3.65265 v 7.05422 h 3.1787 v 0.83647 h -3.1787 z m 6.05047,-16.72942 h 2.62097 q 1.53356,0 2.76033,0.66918 1.22637,0.66917 1.92386,1.97971 0.7245,1.31069 0.7245,3.15065 v 6.10618 q 0,1.7845 -0.66917,3.06712 -0.64151,1.25404 -1.75657,1.92387 -1.11573,0.66917 -2.53732,0.66917 h -0.83646 v -16.72941 h -1.39407 v 16.72941 h -0.83646 z m 3.06699,16.72942 q 1.84035,0 2.98348,-1.25404 1.14338,-1.25535 1.14338,-3.569 v -6.10619 q 0,-2.31417 -1.14338,-3.54094 -1.11573,-1.22638 -2.98348,-1.3942 z m 23.08654,-8.89445 v 9.59141 h -0.83646 v -8.75494 h -1.39406 v 8.89444 h -1.97972 q -1.14339,0 -2.09116,-0.52954 -0.94844,-0.5572 -1.50564,-1.50563 -0.5572,-0.94843 -0.5572,-2.09116 v -8.69936 q 0,-2.23053 1.19871,-3.54094 1.19871,-1.33835 3.23441,-1.33835 0.9761,0 1.8123,0.44656 0.86413,0.41888 1.36627,1.14338 0.50188,0.69684 0.50188,1.53343 h -0.83647 q 0,-0.92077 -0.86412,-1.58928 -0.83647,-0.69683 -1.97959,-0.69683 -0.69684,0 -1.25404,0.19495 v 15.69773 q 0.50188,0.13963 0.97609,0.13963 h 1.14339 v -8.05798 h -1.14339 v -0.83647 z m -7.52817,5.60431 q 0,0.89179 0.38991,1.61721 0.41889,0.7245 1.11572,1.17105 v -14.94491 q -0.7245,0.50188 -1.11572,1.39419 -0.38991,0.89179 -0.38991,2.06324 z m 14.05258,-13.71801 q 2.202735,0 3.457435,1.31068 1.25535,1.31068 1.25535,3.51315 v 8.61558 q 0,1.28302 -0.61384,2.31418 -0.58487,1.03141 -1.67293,1.64512 -1.05908,0.58619 -2.425755,0.58619 -1.31067,0 -2.39782,-0.58619 -1.05908,-0.61384 -1.70085,-1.64512 -0.61385,-1.03143 -0.61385,-2.31418 v -8.61558 q 0,-2.20273 1.28302,-3.51315 1.28302,-1.31068 3.4295,-1.31068 z m -1.25535,16.9523 q 0.5572,0.19495 1.25535,0.19495 0.669175,0 1.254045,-0.16729 v -16.00439 q -0.641515,-0.13963 -1.254045,-0.13963 -0.66917,0 -1.25535,0.16729 z m 5.130355,-12.12873 q 0,-1.22638 -0.47421,-2.11896 -0.44656,-0.92077 -1.31068,-1.39419 v 15.30729 q 0.83646,-0.47421 1.31068,-1.31068 0.47421,-0.83646 0.47421,-1.86802 z m -7.751325,8.61558 q 0,1.00376 0.47422,1.84022 0.47421,0.8088 1.31068,1.31068 v -15.25144 q -0.86413,0.47422 -1.33834,1.36613 -0.44656,0.89179 -0.44656,2.11909 z m 17.705261,-13.16042 v 0.83647 h -2.67669 v 16.72941 h -0.83646 v -16.72941 h -1.39407 v 16.72941 h -0.836462 v -16.72941 h -2.676821 v -0.83647 z"
         id="path10-6"
         aria-label="NEED NEED GOT" />
      <path
         style="font-size:2.11667px;font-family:'Jam Session';-inkscape-font-specification:'Jam Session';text-align:center;text-anchor:middle;fill:#ffffff;fill-opacity:1;stroke:#ffffff;stroke-width:0.5;stroke-linecap:round;stroke-linejoin:round;stroke-dasharray:none;stroke-dashoffset:0;stroke-opacity:1;filter:url(#filter183)"
         d="m -186.70354,39.349937 v 17.56588 H -187.54 q 0,-3.569 -0.86413,-6.859 -0.83647,-3.29014 -2.3421,-5.7716 -1.50563,-2.5094 -3.45729,-3.76422 v 1.89607 q 1.56135,1.19871 2.7324,3.4295 1.19871,2.20273 1.86815,5.0745 0.66917,2.87191 0.66917,5.99475 h -0.83646 q 0,-4.23817 -1.22638,-7.86276 -1.22637,-3.65265 -3.20636,-5.54859 v 13.41135 h -0.83646 v -17.70524 q 2.56511,0.94843 4.60055,3.93138 2.06323,2.98348 2.8997,6.85901 v -10.65103 z m 5.57652,16.72942 h 3.68044 v 0.83646 h -4.51691 v -16.72941 h -1.39419 v 16.72941 h -0.83646 v -17.56588 h 6.71963 v 0.83647 h -3.65251 v 7.05422 h 3.17856 v 0.83647 h -3.17856 z m 9.11745,0 h 3.68045 v 0.83646 h -4.51691 v -16.72941 h -1.3942 v 16.72941 h -0.83646 v -17.56588 h 6.71964 v 0.83647 h -3.65252 v 7.05422 h 3.17857 v 0.83647 h -3.17857 z m 6.05034,-16.72942 h 2.62096 q 1.53356,0 2.76034,0.66918 1.22637,0.66917 1.92386,1.97971 0.7245,1.31069 0.7245,3.15065 v 6.10618 q 0,1.7845 -0.66917,3.06712 -0.64151,1.25404 -1.75658,1.92387 -1.11572,0.66917 -2.53718,0.66917 h -0.83647 v -16.72941 h -1.39419 v 16.72941 h -0.83647 z m 3.06712,16.72942 q 1.84022,0 2.98334,-1.25404 1.1434,-1.25535 1.1434,-3.569 v -6.10619 q 0,-2.31417 -1.1434,-3.54094 -1.11572,-1.22638 -2.98334,-1.3942 z m 23.33735,-16.72942 v 17.56588 h -0.83647 q 0,-3.569 -0.86412,-6.859 -0.83647,-3.29014 -2.3421,-5.7716 -1.50564,-2.5094 -3.4573,-3.76422 v 1.89607 q 1.56136,1.19871 2.73241,3.4295 1.19871,2.20273 1.86814,5.0745 0.66918,2.87191 0.66918,5.99475 h -0.83647 q 0,-4.23817 -1.22637,-7.86276 -1.22638,-3.65265 -3.20636,-5.54859 v 13.41135 h -0.83647 v -17.70524 q 2.56512,0.94843 4.60056,3.93138 2.06323,2.98348 2.89969,6.85901 v -10.65103 z m 5.57638,16.72942 h 3.68044 v 0.83646 h -4.51691 v -16.72941 h -1.39406 v 16.72941 h -0.83646 v -17.56588 h 6.71964 v 0.83647 h -3.65265 v 7.05422 h 3.17856 v 0.83647 h -3.17856 z m 9.11744,0 h 3.68058 v 0.83646 h -4.51703 v -16.72941 h -1.39406 v 16.72941 h -0.83646 v -17.56588 h 6.71962 v 0.83647 h -3.65265 v 7.05422 h 3.1787 v 0.83647 h -3.1787 z m 6.05047,-16.72942 h 2.62097 q 1.53356,0 2.76033,0.66918 1.22637,0.66917 1.92386,1.97971 0.7245,1.31069 0.7245,3.15065 v 6.10618 q 0,1.7845 -0.66917,3.06712 -0.64151,1.25404 -1.75657,1.92387 -1.11573,0.66917 -2.53732,0.66917 h -0.83646 v -16.72941 h -1.39407 v 16.72941 h -0.83646 z m 3.06699,16.72942 q 1.84035,0 2.98348,-1.25404 1.14338,-1.25535 1.14338,-3.569 v -6.10619 q 0,-2.31417 -1.14338,-3.54094 -1.11573,-1.22638 -2.98348,-1.3942 z m 23.08654,-8.89445 v 9.59141 h -0.83646 v -8.75494 h -1.39406 v 8.89444 h -1.97972 q -1.14339,0 -2.09116,-0.52954 -0.94844,-0.5572 -1.50564,-1.50563 -0.5572,-0.94843 -0.5572,-2.09116 v -8.69936 q 0,-2.23053 1.19871,-3.54094 1.19871,-1.33835 3.23441,-1.33835 0.9761,0 1.8123,0.44656 0.86413,0.41888 1.36627,1.14338 0.50188,0.69684 0.50188,1.53343 h -0.83647 q 0,-0.92077 -0.86412,-1.58928 -0.83647,-0.69683 -1.97959,-0.69683 -0.69684,0 -1.25404,0.19495 v 15.69773 q 0.50188,0.13963 0.97609,0.13963 h 1.14339 v -8.05798 h -1.14339 v -0.83647 z m -7.52817,5.60431 q 0,0.89179 0.38991,1.61721 0.41889,0.7245 1.11572,1.17105 v -14.94491 q -0.7245,0.50188 -1.11572,1.39419 -0.38991,0.89179 -0.38991,2.06324 z m 14.052582,-13.71801 q 2.202733,0 3.457433,1.31068 1.25535,1.31068 1.25535,3.51315 v 8.61558 q 0,1.28302 -0.61384,2.31418 -0.58487,1.03141 -1.67293,1.64512 -1.05908,0.58619 -2.425753,0.58619 -1.310672,0 -2.397822,-0.58619 -1.05908,-0.61384 -1.70085,-1.64512 -0.61385,-1.03143 -0.61385,-2.31418 v -8.61558 q 0,-2.20273 1.28302,-3.51315 1.28302,-1.31068 3.429502,-1.31068 z m -1.255352,16.9523 q 0.557202,0.19495 1.255352,0.19495 0.669173,0 1.254043,-0.16729 v -16.00439 q -0.641513,-0.13963 -1.254043,-0.13963 -0.66917,0 -1.255352,0.16729 z m 5.130355,-12.12873 q 0,-1.22638 -0.47421,-2.11896 -0.44656,-0.92077 -1.31068,-1.39419 v 15.30729 q 0.83646,-0.47421 1.31068,-1.31068 0.47421,-0.83646 0.47421,-1.86802 z m -7.751325,8.61558 q 0,1.00376 0.47422,1.84022 0.47421,0.8088 1.31068,1.31068 v -15.25144 q -0.86413,0.47422 -1.33834,1.36613 -0.44656,0.89179 -0.44656,2.11909 z m 17.705261,-13.16042 v 0.83647 h -2.67669 v 16.72941 h -0.83646 v -16.72941 h -1.39407 v 16.72941 h -0.836462 v -16.72941 h -2.676821 v -0.83647 z"
         id="path10"
         aria-label="NEED NEED GOT" />
    </g>
    <rect
       style="fill:#c81d2a;fill-opacity:1;stroke-width:4.49555;stroke-dasharray:13.4867, 13.4867"
       id="rect4-0"
       width="207.53717"
       height="113.81071"
       x="-336.49496"
       y="109.30309" />
    <rect
       style="fill:url(#radialGradient182-3);stroke-width:4.49793;stroke-dasharray:13.4938, 13.4938"
       id="rect179-0"
       width="207.64722"
       height="113.87106"
       x="-336.54999"
       y="109.27291" />
    <path
       style="font-size:2.11667px;font-family:'Jam Session';-inkscape-font-specification:'Jam Session';text-align:center;text-anchor:middle;fill:#aa322a;fill-opacity:0.952941;stroke:#e6322a;stroke-width:5;stroke-linecap:round;stroke-linejoin:round;stroke-dasharray:none;stroke-dashoffset:0;stroke-opacity:1;filter:url(#filter177-5)"
       d="m -285.7584,157.49473 v 17.56587 h -0.83646 q 0,-3.569 -0.86413,-6.859 -0.83647,-3.29014 -2.3421,-5.7716 -1.50563,-2.5094 -3.45729,-3.76422 v 1.89607 q 1.56135,1.19871 2.7324,3.4295 1.19871,2.20273 1.86815,5.0745 0.66917,2.87192 0.66917,5.99475 h -0.83646 q 0,-4.23817 -1.22638,-7.86276 -1.22637,-3.65265 -3.20636,-5.54859 v 13.41135 h -0.83646 v -17.70524 q 2.56511,0.94843 4.60055,3.93138 2.06323,2.98348 2.8997,6.85901 v -10.65103 z m 5.57652,16.72942 h 3.68044 v 0.83645 h -4.51691 v -16.72941 h -1.39419 v 16.72941 h -0.83646 v -17.56587 h 6.71963 v 0.83646 h -3.65251 v 7.05423 h 3.17856 v 0.83647 h -3.17856 z m 9.11745,0 h 3.68045 v 0.83645 h -4.51691 v -16.72941 h -1.3942 v 16.72941 h -0.83646 v -17.56587 h 6.71964 v 0.83646 h -3.65252 v 7.05423 h 3.17857 v 0.83647 h -3.17857 z m 6.05034,-16.72942 h 2.62096 q 1.53356,0 2.76034,0.66917 1.22637,0.66917 1.92386,1.97971 0.7245,1.31069 0.7245,3.15065 v 6.10618 q 0,1.7845 -0.66917,3.06712 -0.64151,1.25404 -1.75658,1.92387 -1.11572,0.66917 -2.53718,0.66917 h -0.83647 v -16.72941 h -1.39419 v 16.72941 h -0.83647 z m 3.06712,16.72942 q 1.84022,0 2.98334,-1.25405 1.1434,-1.25535 1.1434,-3.569 v -6.10619 q 0,-2.31416 -1.1434,-3.54094 -1.11572,-1.22637 -2.98334,-1.39419 z m 23.33735,-16.72942 v 17.56587 h -0.83647 q 0,-3.569 -0.86412,-6.859 -0.83647,-3.29014 -2.3421,-5.7716 -1.50564,-2.5094 -3.4573,-3.76422 v 1.89607 q 1.56136,1.19871 2.73241,3.4295 1.19871,2.20273 1.86814,5.0745 0.66918,2.87192 0.66918,5.99475 h -0.83647 q 0,-4.23817 -1.22637,-7.86276 -1.22638,-3.65265 -3.20636,-5.54859 v 13.41135 h -0.83647 v -17.70524 q 2.56512,0.94843 4.60056,3.93138 2.06323,2.98348 2.89969,6.85901 v -10.65103 z m 5.57638,16.72942 h 3.68044 v 0.83645 h -4.51691 v -16.72941 h -1.39406 v 16.72941 h -0.83646 v -17.56587 h 6.71964 v 0.83646 h -3.65265 v 7.05423 h 3.17856 v 0.83647 h -3.17856 z m 9.11744,0 h 3.68058 v 0.83645 h -4.51703 v -16.72941 h -1.39406 v 16.72941 h -0.83646 v -17.56587 h 6.71962 v 0.83646 h -3.65265 v 7.05423 h 3.1787 v 0.83647 h -3.1787 z m 6.05047,-16.72942 h 2.62097 q 1.53356,0 2.76033,0.66917 1.22637,0.66917 1.92386,1.97971 0.7245,1.31069 0.7245,3.15065 v 6.10618 q 0,1.7845 -0.66917,3.06712 -0.64151,1.25404 -1.75657,1.92387 -1.11573,0.66917 -2.53732,0.66917 h -0.83646 v -16.72941 h -1.39407 v 16.72941 h -0.83646 z m 3.06699,16.72942 q 1.84035,0 2.98348,-1.25405 1.14338,-1.25535 1.14338,-3.569 v -6.10619 q 0,-2.31416 -1.14338,-3.54094 -1.11573,-1.22637 -2.98348,-1.39419 z m 23.08654,-8.89445 v 9.5914 h -0.83646 v -8.75494 h -1.39406 v 8.89444 h -1.97972 q -1.14339,0 -2.09116,-0.52954 -0.94844,-0.55719 -1.50564,-1.50562 -0.5572,-0.94843 -0.5572,-2.09116 v -8.69937 q 0,-2.23052 1.19871,-3.54093 1.19871,-1.33835 3.23441,-1.33835 0.9761,0 1.8123,0.44655 0.86413,0.41888 1.36627,1.14339 0.50188,0.69684 0.50188,1.53343 h -0.83647 q 0,-0.92077 -0.86412,-1.58928 -0.83647,-0.69683 -1.97959,-0.69683 -0.69684,0 -1.25404,0.19495 v 15.69773 q 0.50188,0.13963 0.97609,0.13963 h 1.14339 v -8.05799 h -1.14339 v -0.83647 z m -7.52817,5.60431 q 0,0.89178 0.38991,1.61721 0.41889,0.72449 1.11572,1.17104 v -14.94491 q -0.7245,0.50188 -1.11572,1.39419 -0.38991,0.89179 -0.38991,2.06325 z m 14.05258,-13.71801 q 2.20273,0 3.45743,1.31067 1.25535,1.31068 1.25535,3.51315 v 8.61558 q 0,1.28302 -0.61384,2.31418 -0.58487,1.03142 -1.67293,1.64513 -1.05908,0.58618 -2.42575,0.58618 -1.31067,0 -2.39782,-0.58618 -1.05908,-0.61385 -1.70085,-1.64513 -0.61385,-1.03143 -0.61385,-2.31418 v -8.61558 q 0,-2.20273 1.28302,-3.51315 1.28302,-1.31067 3.4295,-1.31067 z m -1.25535,16.95229 q 0.5572,0.19495 1.25535,0.19495 0.66917,0 1.25404,-0.16729 v -16.00439 q -0.64151,-0.13962 -1.25404,-0.13962 -0.66917,0 -1.25535,0.16728 z m 5.13035,-12.12873 q 0,-1.22638 -0.47421,-2.11895 -0.44656,-0.92077 -1.31068,-1.39419 v 15.30728 q 0.83646,-0.47421 1.31068,-1.31067 0.47421,-0.83647 0.47421,-1.86802 z m -7.75132,8.61558 q 0,1.00376 0.47422,1.84023 0.47421,0.80879 1.31068,1.31067 V 158.5546 q -0.86413,0.47422 -1.33834,1.36613 -0.44656,0.89179 -0.44656,2.11909 z m 17.70525,-13.16041 v 0.83646 h -2.67669 v 16.72941 h -0.83646 v -16.72941 h -1.39407 v 16.72941 h -0.83646 v -16.72941 h -2.67682 v -0.83646 z"
       id="text4-1"
       aria-label="NEED NEED GOT" />
    <path
       style="font-size:2.11667px;font-family:'Jam Session';-inkscape-font-specification:'Jam Session';text-align:center;text-anchor:middle;mix-blend-mode:normal;fill:#dca05d;fill-opacity:1;stroke:#f6bab8;stroke-width:1;stroke-linecap:round;stroke-linejoin:round;stroke-dasharray:none;stroke-dashoffset:0;stroke-opacity:1;filter:url(#filter179-0)"
       d="m -285.7584,157.49473 v 17.56588 h -0.83646 q 0,-3.569 -0.86413,-6.859 -0.83647,-3.29014 -2.3421,-5.7716 -1.50563,-2.5094 -3.45729,-3.76422 v 1.89607 q 1.56135,1.19871 2.7324,3.4295 1.19871,2.20273 1.86815,5.0745 0.66917,2.87191 0.66917,5.99475 h -0.83646 q 0,-4.23817 -1.22638,-7.86276 -1.22637,-3.65265 -3.20636,-5.54859 v 13.41135 h -0.83646 v -17.70524 q 2.56511,0.94843 4.60055,3.93138 2.06323,2.98348 2.8997,6.85901 v -10.65103 z m 5.57652,16.72942 h 3.68044 v 0.83646 h -4.51691 V 158.3312 h -1.39419 v 16.72941 h -0.83646 v -17.56588 h 6.71963 v 0.83647 h -3.65251 v 7.05422 h 3.17856 v 0.83647 h -3.17856 z m 9.11745,0 h 3.68045 v 0.83646 h -4.51691 V 158.3312 h -1.3942 v 16.72941 h -0.83646 v -17.56588 h 6.71964 v 0.83647 h -3.65252 v 7.05422 h 3.17857 v 0.83647 h -3.17857 z m 6.05034,-16.72942 h 2.62096 q 1.53356,0 2.76034,0.66918 1.22637,0.66917 1.92386,1.97971 0.7245,1.31069 0.7245,3.15065 v 6.10618 q 0,1.7845 -0.66917,3.06712 -0.64151,1.25404 -1.75658,1.92387 -1.11572,0.66917 -2.53718,0.66917 h -0.83647 V 158.3312 h -1.39419 v 16.72941 h -0.83647 z m 3.06712,16.72942 q 1.84022,0 2.98334,-1.25404 1.1434,-1.25535 1.1434,-3.569 v -6.10619 q 0,-2.31417 -1.1434,-3.54094 -1.11572,-1.22638 -2.98334,-1.3942 z m 23.33735,-16.72942 v 17.56588 h -0.83647 q 0,-3.569 -0.86412,-6.859 -0.83647,-3.29014 -2.3421,-5.7716 -1.50564,-2.5094 -3.4573,-3.76422 v 1.89607 q 1.56136,1.19871 2.73241,3.4295 1.19871,2.20273 1.86814,5.0745 0.66918,2.87191 0.66918,5.99475 h -0.83647 q 0,-4.23817 -1.22637,-7.86276 -1.22638,-3.65265 -3.20636,-5.54859 v 13.41135 h -0.83647 v -17.70524 q 2.56512,0.94843 4.60056,3.93138 2.06323,2.98348 2.89969,6.85901 v -10.65103 z m 5.57638,16.72942 h 3.68044 v 0.83646 h -4.51691 V 158.3312 h -1.39406 v 16.72941 h -0.83646 v -17.56588 h 6.71964 v 0.83647 h -3.65265 v 7.05422 h 3.17856 v 0.83647 h -3.17856 z m 9.11744,0 h 3.68058 v 0.83646 h -4.51703 V 158.3312 h -1.39406 v 16.72941 h -0.83646 v -17.56588 h 6.71962 v 0.83647 h -3.65265 v 7.05422 h 3.1787 v 0.83647 h -3.1787 z m 6.05047,-16.72942 h 2.62097 q 1.53356,0 2.76033,0.66918 1.22637,0.66917 1.92386,1.97971 0.7245,1.31069 0.7245,3.15065 v 6.10618 q 0,1.7845 -0.66917,3.06712 -0.64151,1.25404 -1.75657,1.92387 -1.11573,0.66917 -2.53732,0.66917 h -0.83646 V 158.3312 h -1.39407 v 16.72941 h -0.83646 z m 3.06699,16.72942 q 1.84035,0 2.98348,-1.25404 1.14338,-1.25535 1.14338,-3.569 v -6.10619 q 0,-2.31417 -1.14338,-3.54094 -1.11573,-1.22638 -2.98348,-1.3942 z m 23.08654,-8.89445 v 9.59141 h -0.83646 v -8.75494 h -1.39406 v 8.89444 h -1.97972 q -1.14339,0 -2.09116,-0.52954 -0.94844,-0.5572 -1.50564,-1.50563 -0.5572,-0.94843 -0.5572,-2.09116 v -8.69936 q 0,-2.23053 1.19871,-3.54094 1.19871,-1.33835 3.23441,-1.33835 0.9761,0 1.8123,0.44656 0.86413,0.41888 1.36627,1.14338 0.50188,0.69684 0.50188,1.53343 h -0.83647 q 0,-0.92077 -0.86412,-1.58928 -0.83647,-0.69683 -1.97959,-0.69683 -0.69684,0 -1.25404,0.19495 v 15.69773 q 0.50188,0.13963 0.97609,0.13963 h 1.14339 v -8.05798 h -1.14339 v -0.83647 z m -7.52817,5.60431 q 0,0.89179 0.38991,1.61721 0.41889,0.7245 1.11572,1.17105 v -14.94491 q -0.7245,0.50188 -1.11572,1.39419 -0.38991,0.89179 -0.38991,2.06324 z m 14.05259,-13.71801 q 2.20273,0 3.45743,1.31068 1.25535,1.31068 1.25535,3.51315 v 8.61558 q 0,1.28302 -0.61384,2.31418 -0.58487,1.03141 -1.67293,1.64512 -1.05908,0.58619 -2.42575,0.58619 -1.31067,0 -2.39782,-0.58619 -1.05908,-0.61384 -1.70085,-1.64512 -0.61385,-1.03143 -0.61385,-2.31418 v -8.61558 q 0,-2.20273 1.28302,-3.51315 1.28302,-1.31068 3.4295,-1.31068 z m -1.25535,16.9523 q 0.5572,0.19495 1.25535,0.19495 0.66917,0 1.25404,-0.16729 v -16.00439 q -0.64151,-0.13963 -1.25404,-0.13963 -0.66917,0 -1.25535,0.16729 z m 5.13035,-12.12873 q 0,-1.22638 -0.47421,-2.11896 -0.44656,-0.92077 -1.31068,-1.39419 v 15.30729 q 0.83646,-0.47421 1.31068,-1.31068 0.47421,-0.83646 0.47421,-1.86802 z m -7.75132,8.61558 q 0,1.00376 0.47422,1.84022 0.47421,0.8088 1.31068,1.31068 v -15.25144 q -0.86413,0.47422 -1.33834,1.36613 -0.44656,0.89179 -0.44656,2.11909 z m 17.70525,-13.16042 v 0.83647 h -2.67669 v 16.72941 h -0.83646 V 158.3312 h -1.39407 v 16.72941 h -0.83647 V 158.3312 h -2.67681 v -0.83647 z"
       id="path37-3"
       aria-label="NEED NEED GOT" />
    <path
       style="font-size:2.11667px;font-family:'Jam Session';-inkscape-font-specification:'Jam Session';text-align:center;text-anchor:middle;fill:#1a1a1a;fill-opacity:1;stroke-width:4.64703;stroke-dasharray:13.941, 13.941"
       d="m -286.56608,157.49473 v 17.56588 h -0.83646 q 0,-3.569 -0.86413,-6.859 -0.83647,-3.29014 -2.3421,-5.7716 -1.50563,-2.5094 -3.45729,-3.76422 v 1.89607 q 1.56135,1.19871 2.7324,3.4295 1.19871,2.20273 1.86815,5.0745 0.66917,2.87191 0.66917,5.99475 h -0.83646 q 0,-4.23817 -1.22638,-7.86276 -1.22637,-3.65265 -3.20636,-5.54859 v 13.41135 h -0.83646 v -17.70524 q 2.56511,0.94843 4.60055,3.93138 2.06323,2.98348 2.8997,6.85901 v -10.65103 z m 5.57652,16.72942 h 3.68044 v 0.83646 h -4.51691 V 158.3312 h -1.39419 v 16.72941 h -0.83646 v -17.56588 h 6.71963 v 0.83647 h -3.65251 v 7.05422 h 3.17856 v 0.83647 h -3.17856 z m 9.11745,0 h 3.68045 v 0.83646 h -4.51691 V 158.3312 h -1.3942 v 16.72941 h -0.83646 v -17.56588 h 6.71964 v 0.83647 h -3.65252 v 7.05422 h 3.17857 v 0.83647 h -3.17857 z m 6.05034,-16.72942 h 2.62096 q 1.53356,0 2.76034,0.66918 1.22637,0.66917 1.92386,1.97971 0.7245,1.31069 0.7245,3.15065 v 6.10618 q 0,1.7845 -0.66917,3.06712 -0.64151,1.25404 -1.75658,1.92387 -1.11572,0.66917 -2.53718,0.66917 h -0.83647 V 158.3312 h -1.39419 v 16.72941 h -0.83647 z m 3.06712,16.72942 q 1.84022,0 2.98334,-1.25404 1.1434,-1.25535 1.1434,-3.569 v -6.10619 q 0,-2.31417 -1.1434,-3.54094 -1.11572,-1.22638 -2.98334,-1.3942 z m 23.33735,-16.72942 v 17.56588 h -0.83647 q 0,-3.569 -0.86412,-6.859 -0.83647,-3.29014 -2.3421,-5.7716 -1.50564,-2.5094 -3.4573,-3.76422 v 1.89607 q 1.56136,1.19871 2.73241,3.4295 1.19871,2.20273 1.86814,5.0745 0.66918,2.87191 0.66918,5.99475 h -0.83647 q 0,-4.23817 -1.22637,-7.86276 -1.22638,-3.65265 -3.20636,-5.54859 v 13.41135 h -0.83647 v -17.70524 q 2.56512,0.94843 4.60056,3.93138 2.06323,2.98348 2.89969,6.85901 v -10.65103 z m 5.57638,16.72942 h 3.68044 v 0.83646 h -4.51691 V 158.3312 h -1.39406 v 16.72941 h -0.83646 v -17.56588 h 6.71964 v 0.83647 h -3.65265 v 7.05422 h 3.17856 v 0.83647 h -3.17856 z m 9.11744,0 h 3.68058 v 0.83646 h -4.51703 V 158.3312 h -1.39406 v 16.72941 h -0.83646 v -17.56588 h 6.71962 v 0.83647 h -3.65265 v 7.05422 h 3.1787 v 0.83647 h -3.1787 z m 6.05047,-16.72942 h 2.62097 q 1.53356,0 2.76033,0.66918 1.22637,0.66917 1.92386,1.97971 0.7245,1.31069 0.7245,3.15065 v 6.10618 q 0,1.7845 -0.66917,3.06712 -0.64151,1.25404 -1.75657,1.92387 -1.11573,0.66917 -2.53732,0.66917 h -0.83646 V 158.3312 h -1.39407 v 16.72941 h -0.83646 z m 3.06699,16.72942 q 1.84035,0 2.98348,-1.25404 1.14338,-1.25535 1.14338,-3.569 v -6.10619 q 0,-2.31417 -1.14338,-3.54094 -1.11573,-1.22638 -2.98348,-1.3942 z m 23.08654,-8.89445 v 9.59141 h -0.83646 v -8.75494 H -194.75 v 8.89444 h -1.97972 q -1.14339,0 -2.09116,-0.52954 -0.94844,-0.5572 -1.50564,-1.50563 -0.5572,-0.94843 -0.5572,-2.09116 v -8.69936 q 0,-2.23053 1.19871,-3.54094 1.19871,-1.33835 3.23441,-1.33835 0.9761,0 1.8123,0.44656 0.86413,0.41888 1.36627,1.14338 0.50188,0.69684 0.50188,1.53343 h -0.83647 q 0,-0.92077 -0.86412,-1.58928 -0.83647,-0.69683 -1.97959,-0.69683 -0.69684,0 -1.25404,0.19495 v 15.69773 q 0.50188,0.13963 0.97609,0.13963 h 1.14339 v -8.05798 h -1.14339 v -0.83647 z m -7.52817,5.60431 q 0,0.89179 0.38991,1.61721 0.41889,0.7245 1.11572,1.17105 v -14.94491 q -0.7245,0.50188 -1.11572,1.39419 -0.38991,0.89179 -0.38991,2.06324 z m 14.05258,-13.71801 q 2.20273,0 3.45743,1.31068 1.25535,1.31068 1.25535,3.51315 v 8.61558 q 0,1.28302 -0.61384,2.31418 -0.58487,1.03141 -1.67293,1.64512 -1.05908,0.58619 -2.42575,0.58619 -1.31067,0 -2.39782,-0.58619 -1.05908,-0.61384 -1.70085,-1.64512 -0.61385,-1.03143 -0.61385,-2.31418 v -8.61558 q 0,-2.20273 1.28302,-3.51315 1.28302,-1.31068 3.4295,-1.31068 z m -1.25535,16.9523 q 0.5572,0.19495 1.25535,0.19495 0.66917,0 1.25404,-0.16729 v -16.00439 q -0.64151,-0.13963 -1.25404,-0.13963 -0.66917,0 -1.25535,0.16729 z m 5.13035,-12.12873 q 0,-1.22638 -0.47421,-2.11896 -0.44656,-0.92077 -1.31068,-1.39419 v 15.30729 q 0.83646,-0.47421 1.31068,-1.31068 0.47421,-0.83646 0.47421,-1.86802 z m -7.75132,8.61558 q 0,1.00376 0.47422,1.84022 0.47421,0.8088 1.31068,1.31068 v -15.25144 q -0.86413,0.47422 -1.33834,1.36613 -0.44656,0.89179 -0.44656,2.11909 z m 17.70526,-13.16042 v 0.83647 h -2.67669 v 16.72941 h -0.83646 V 158.3312 h -1.39407 v 16.72941 h -0.83646 V 158.3312 h -2.67682 v -0.83647 z"
       id="path10-6-0"
       aria-label="NEED NEED GOT" />
    <path
       style="font-size:2.11667px;font-family:'Jam Session';-inkscape-font-specification:'Jam Session';text-align:center;text-anchor:middle;fill:#ffffff;fill-opacity:1;stroke:#ffffff;stroke-width:0.5;stroke-linecap:round;stroke-linejoin:round;stroke-dasharray:none;stroke-dashoffset:0;stroke-opacity:1;filter:url(#filter183-2)"
       d="m -285.7584,157.49473 v 17.56588 h -0.83646 q 0,-3.569 -0.86413,-6.859 -0.83647,-3.29014 -2.3421,-5.7716 -1.50563,-2.5094 -3.45729,-3.76422 v 1.89607 q 1.56135,1.19871 2.7324,3.4295 1.19871,2.20273 1.86815,5.0745 0.66917,2.87191 0.66917,5.99475 h -0.83646 q 0,-4.23817 -1.22638,-7.86276 -1.22637,-3.65265 -3.20636,-5.54859 v 13.41135 h -0.83646 v -17.70524 q 2.56511,0.94843 4.60055,3.93138 2.06323,2.98348 2.8997,6.85901 v -10.65103 z m 5.57652,16.72942 h 3.68044 v 0.83646 h -4.51691 V 158.3312 h -1.39419 v 16.72941 h -0.83646 v -17.56588 h 6.71963 v 0.83647 h -3.65251 v 7.05422 h 3.17856 v 0.83647 h -3.17856 z m 9.11745,0 h 3.68045 v 0.83646 h -4.51691 V 158.3312 h -1.3942 v 16.72941 h -0.83646 v -17.56588 h 6.71964 v 0.83647 h -3.65252 v 7.05422 h 3.17857 v 0.83647 h -3.17857 z m 6.05034,-16.72942 h 2.62096 q 1.53356,0 2.76034,0.66918 1.22637,0.66917 1.92386,1.97971 0.7245,1.31069 0.7245,3.15065 v 6.10618 q 0,1.7845 -0.66917,3.06712 -0.64151,1.25404 -1.75658,1.92387 -1.11572,0.66917 -2.53718,0.66917 h -0.83647 V 158.3312 h -1.39419 v 16.72941 h -0.83647 z m 3.06712,16.72942 q 1.84022,0 2.98334,-1.25404 1.1434,-1.25535 1.1434,-3.569 v -6.10619 q 0,-2.31417 -1.1434,-3.54094 -1.11572,-1.22638 -2.98334,-1.3942 z m 23.33735,-16.72942 v 17.56588 h -0.83647 q 0,-3.569 -0.86412,-6.859 -0.83647,-3.29014 -2.3421,-5.7716 -1.50564,-2.5094 -3.4573,-3.76422 v 1.89607 q 1.56136,1.19871 2.73241,3.4295 1.19871,2.20273 1.86814,5.0745 0.66918,2.87191 0.66918,5.99475 h -0.83647 q 0,-4.23817 -1.22637,-7.86276 -1.22638,-3.65265 -3.20636,-5.54859 v 13.41135 h -0.83647 v -17.70524 q 2.56512,0.94843 4.60056,3.93138 2.06323,2.98348 2.89969,6.85901 v -10.65103 z m 5.57638,16.72942 h 3.68044 v 0.83646 h -4.51691 V 158.3312 h -1.39406 v 16.72941 h -0.83646 v -17.56588 h 6.71964 v 0.83647 h -3.65265 v 7.05422 h 3.17856 v 0.83647 h -3.17856 z m 9.11744,0 h 3.68058 v 0.83646 h -4.51703 V 158.3312 h -1.39406 v 16.72941 h -0.83646 v -17.56588 h 6.71962 v 0.83647 h -3.65265 v 7.05422 h 3.1787 v 0.83647 h -3.1787 z m 6.05047,-16.72942 h 2.62097 q 1.53356,0 2.76033,0.66918 1.22637,0.66917 1.92386,1.97971 0.7245,1.31069 0.7245,3.15065 v 6.10618 q 0,1.7845 -0.66917,3.06712 -0.64151,1.25404 -1.75657,1.92387 -1.11573,0.66917 -2.53732,0.66917 h -0.83646 V 158.3312 h -1.39407 v 16.72941 h -0.83646 z m 3.06699,16.72942 q 1.84035,0 2.98348,-1.25404 1.14338,-1.25535 1.14338,-3.569 v -6.10619 q 0,-2.31417 -1.14338,-3.54094 -1.11573,-1.22638 -2.98348,-1.3942 z m 23.08654,-8.89445 v 9.59141 h -0.83646 v -8.75494 h -1.39406 v 8.89444 h -1.97972 q -1.14339,0 -2.09116,-0.52954 -0.94844,-0.5572 -1.50564,-1.50563 -0.5572,-0.94843 -0.5572,-2.09116 v -8.69936 q 0,-2.23053 1.19871,-3.54094 1.19871,-1.33835 3.23441,-1.33835 0.9761,0 1.8123,0.44656 0.86413,0.41888 1.36627,1.14338 0.50188,0.69684 0.50188,1.53343 h -0.83647 q 0,-0.92077 -0.86412,-1.58928 -0.83647,-0.69683 -1.97959,-0.69683 -0.69684,0 -1.25404,0.19495 v 15.69773 q 0.50188,0.13963 0.97609,0.13963 h 1.14339 v -8.05798 h -1.14339 v -0.83647 z m -7.52817,5.60431 q 0,0.89179 0.38991,1.61721 0.41889,0.7245 1.11572,1.17105 v -14.94491 q -0.7245,0.50188 -1.11572,1.39419 -0.38991,0.89179 -0.38991,2.06324 z m 14.05258,-13.71801 q 2.20273,0 3.45743,1.31068 1.25535,1.31068 1.25535,3.51315 v 8.61558 q 0,1.28302 -0.61384,2.31418 -0.58487,1.03141 -1.67293,1.64512 -1.05908,0.58619 -2.42575,0.58619 -1.31067,0 -2.39782,-0.58619 -1.05908,-0.61384 -1.70085,-1.64512 -0.61385,-1.03143 -0.61385,-2.31418 v -8.61558 q 0,-2.20273 1.28302,-3.51315 1.28302,-1.31068 3.4295,-1.31068 z m -1.25535,16.9523 q 0.5572,0.19495 1.25535,0.19495 0.66917,0 1.25404,-0.16729 v -16.00439 q -0.64151,-0.13963 -1.25404,-0.13963 -0.66917,0 -1.25535,0.16729 z m 5.13035,-12.12873 q 0,-1.22638 -0.47421,-2.11896 -0.44656,-0.92077 -1.31068,-1.39419 v 15.30729 q 0.83646,-0.47421 1.31068,-1.31068 0.47421,-0.83646 0.47421,-1.86802 z m -7.75132,8.61558 q 0,1.00376 0.47422,1.84022 0.47421,0.8088 1.31068,1.31068 v -15.25144 q -0.86413,0.47422 -1.33834,1.36613 -0.44656,0.89179 -0.44656,2.11909 z m 17.70526,-13.16042 v 0.83647 h -2.67669 v 16.72941 h -0.83646 V 158.3312 h -1.39407 v 16.72941 h -0.83646 V 158.3312 h -2.67682 v -0.83647 z"
       id="path10-0"
       aria-label="NEED NEED GOT" />
    <path
       style="font-size:2.11667px;font-family:'Jam Session';-inkscape-font-specification:'Jam Session';text-align:center;text-anchor:middle;fill:#ffffff;fill-opacity:1;stroke:#ffffff;stroke-width:0.5;stroke-linecap:round;stroke-linejoin:round;stroke-dasharray:none;stroke-dashoffset:0;stroke-opacity:1;filter:url(#filter183-2-3)"
       d="m -62.07542,372.12587 v 17.56588 h -0.83646 q 0,-3.569 -0.86413,-6.859 -0.83647,-3.29014 -2.3421,-5.7716 -1.50563,-2.5094 -3.45729,-3.76422 v 1.89607 q 1.56135,1.19871 2.7324,3.4295 1.19871,2.20273 1.86815,5.0745 0.66917,2.87191 0.66917,5.99475 h -0.83646 q 0,-4.23817 -1.22638,-7.86276 -1.22637,-3.65265 -3.20636,-5.54859 v 13.41135 h -0.83646 v -17.70524 q 2.56511,0.94843 4.60055,3.93138 2.06323,2.98348 2.8997,6.85901 v -10.65103 z m 5.57652,16.72942 h 3.68044 v 0.83646 h -4.51691 v -16.72941 h -1.39419 v 16.72941 h -0.83646 v -17.56588 h 6.71963 v 0.83647 h -3.65251 v 7.05422 h 3.17856 v 0.83647 h -3.17856 z m 9.11745,0 h 3.68045 v 0.83646 h -4.51691 v -16.72941 h -1.3942 v 16.72941 h -0.83646 v -17.56588 h 6.71964 v 0.83647 h -3.65252 v 7.05422 h 3.17857 v 0.83647 h -3.17857 z m 6.05034,-16.72942 h 2.62096 q 1.53356,0 2.76034,0.66918 1.22637,0.66917 1.92386,1.97971 0.7245,1.31069 0.7245,3.15065 v 6.10618 q 0,1.7845 -0.66917,3.06712 -0.64151,1.25404 -1.75658,1.92387 -1.11572,0.66917 -2.53718,0.66917 h -0.83647 v -16.72941 h -1.39419 v 16.72941 h -0.83647 z m 3.06712,16.72942 q 1.84022,0 2.98334,-1.25404 1.1434,-1.25535 1.1434,-3.569 v -6.10619 q 0,-2.31417 -1.1434,-3.54094 -1.11572,-1.22638 -2.98334,-1.3942 z m 23.33735,-16.72942 v 17.56588 h -0.83647 q 0,-3.569 -0.86412,-6.859 -0.83647,-3.29014 -2.3421,-5.7716 -1.50564,-2.5094 -3.4573,-3.76422 v 1.89607 q 1.56136,1.19871 2.73241,3.4295 1.19871,2.20273 1.86814,5.0745 0.66918,2.87191 0.66918,5.99475 h -0.83647 q 0,-4.23817 -1.22637,-7.86276 -1.22638,-3.65265 -3.20636,-5.54859 v 13.41135 h -0.83647 v -17.70524 q 2.56512,0.94843 4.60056,3.93138 2.06323,2.98348 2.89969,6.85901 v -10.65103 z m 5.5763798,16.72942 h 3.68044 v 0.83646 H -10.18673 v -16.72941 h -1.39406 v 16.72941 h -0.83646 v -17.56588 h 6.7196398 v 0.83647 h -3.65265 v 7.05422 h 3.17856 v 0.83647 h -3.17856 z m 9.11743996,0 H 3.4477598 v 0.83646 h -4.51703 v -16.72941 h -1.39406 v 16.72941 h -0.83646 v -17.56588 h 6.71962 v 0.83647 h -3.65265004 v 7.05422 H 2.9458798 v 0.83647 H -0.23282024 Z M 5.8176498,372.12587 h 2.62097 q 1.53356,0 2.7603302,0.66918 1.22637,0.66917 1.92386,1.97971 0.7245,1.31069 0.7245,3.15065 v 6.10618 q 0,1.7845 -0.66917,3.06712 -0.64151,1.25404 -1.75657,1.92387 -1.11573,0.66917 -2.5373202,0.66917 h -0.83646 v -16.72941 h -1.39407 v 16.72941 h -0.83646 z m 3.06699,16.72942 q 1.8403502,0 2.9834802,-1.25404 1.14338,-1.25535 1.14338,-3.569 v -6.10619 q 0,-2.31417 -1.14338,-3.54094 -1.11573,-1.22638 -2.9834802,-1.3942 z M 31.97118,379.96084 v 9.59141 h -0.83646 v -8.75494 h -1.39406 v 8.89444 h -1.97972 q -1.14339,0 -2.09116,-0.52954 -0.94844,-0.5572 -1.50564,-1.50563 -0.5572,-0.94843 -0.5572,-2.09116 v -8.69936 q 0,-2.23053 1.19871,-3.54094 1.19871,-1.33835 3.23441,-1.33835 0.9761,0 1.8123,0.44656 0.86413,0.41888 1.36627,1.14338 0.50188,0.69684 0.50188,1.53343 h -0.83647 q 0,-0.92077 -0.86412,-1.58928 -0.83647,-0.69683 -1.97959,-0.69683 -0.69684,0 -1.25404,0.19495 v 15.69773 q 0.50188,0.13963 0.97609,0.13963 h 1.14339 v -8.05798 h -1.14339 v -0.83647 z m -7.52817,5.60431 q 0,0.89179 0.38991,1.61721 0.41889,0.7245 1.11572,1.17105 V 373.4085 q -0.7245,0.50188 -1.11572,1.39419 -0.38991,0.89179 -0.38991,2.06324 z m 14.05258,-13.71801 q 2.20273,0 3.45743,1.31068 1.25535,1.31068 1.25535,3.51315 v 8.61558 q 0,1.28302 -0.61384,2.31418 -0.58487,1.03141 -1.67293,1.64512 -1.05908,0.58619 -2.42575,0.58619 -1.31067,0 -2.39782,-0.58619 -1.05908,-0.61384 -1.70085,-1.64512 -0.61385,-1.03143 -0.61385,-2.31418 v -8.61558 q 0,-2.20273 1.28302,-3.51315 1.28302,-1.31068 3.4295,-1.31068 z m -1.25535,16.9523 q 0.5572,0.19495 1.25535,0.19495 0.66917,0 1.25404,-0.16729 v -16.00439 q -0.64151,-0.13963 -1.25404,-0.13963 -0.66917,0 -1.25535,0.16729 z m 5.13035,-12.12873 q 0,-1.22638 -0.47421,-2.11896 -0.44656,-0.92077 -1.31068,-1.39419 v 15.30729 q 0.83646,-0.47421 1.31068,-1.31068 0.47421,-0.83646 0.47421,-1.86802 z m -7.75132,8.61558 q 0,1.00376 0.47422,1.84022 0.47421,0.8088 1.31068,1.31068 v -15.25144 q -0.86413,0.47422 -1.33834,1.36613 -0.44656,0.89179 -0.44656,2.11909 z m 17.70526,-13.16042 v 0.83647 h -2.67669 v 16.72941 h -0.83646 v -16.72941 h -1.39407 v 16.72941 h -0.83646 v -16.72941 h -2.67682 v -0.83647 z"
       id="path10-0-2"
       aria-label="NEED NEED GOT" />
    <g
       id="text14"
       style="font-size:70.9939px;font-family:'Jam Session';-inkscape-font-specification:'Jam Session';text-align:center;text-anchor:middle;fill:#800000;stroke-width:16.7702;stroke-linecap:round;stroke-linejoin:round"
       aria-label="NEED&#10;NEED&#10;GOT"
       transform="translate(-44.901281,-92.79598)">
      <path
         d="m -203.18058,411.35426 v 44.72615 h -2.12982 q 0,-9.08721 -2.20081,-17.46449 -2.12981,-8.37728 -5.96349,-14.69574 -3.83367,-6.38945 -8.80324,-9.58418 v 4.82759 q 3.97566,3.05274 6.9574,8.73225 3.05274,5.60851 4.75659,12.92089 1.70386,7.31237 1.70386,15.26368 h -2.12982 q 0,-10.79107 -3.12373,-20.02027 -3.12373,-9.30021 -8.1643,-14.12779 v 34.14806 h -2.12982 v -45.08112 q 6.53144,2.41379 11.714,10.01014 5.25355,7.59635 7.38336,17.4645 v -27.11967 z m 14.19877,42.59634 h 9.3712 v 2.12981 h -11.50101 v -42.59633 h -3.5497 v 42.59633 h -2.12981 v -44.72615 h 17.10952 v 2.12982 h -9.3002 v 17.96145 h 8.09331 v 2.12982 h -8.09331 z m 23.21499,0 h 9.37119 v 2.12981 h -11.50101 v -42.59633 h -3.54969 v 42.59633 h -2.12982 v -44.72615 h 17.10953 v 2.12982 h -9.3002 v 17.96145 h 8.0933 v 2.12982 h -8.0933 z m 15.40565,-42.59634 h 6.67343 q 3.90466,0 7.02839,1.70385 3.12373,1.70386 4.89858,5.04057 1.84584,3.33671 1.84584,8.02231 v 15.54766 q 0,4.54361 -1.70385,7.80933 -1.63286,3.19473 -4.47262,4.89858 -2.83975,1.70385 -6.46044,1.70385 h -2.12982 v -42.59633 h -3.54969 v 42.59633 h -2.12982 z m 7.80933,42.59634 q 4.6856,0 7.59635,-3.19473 2.91075,-3.19472 2.91075,-9.08722 v -15.54766 q 0,-5.89249 -2.91075,-9.01623 -2.83976,-3.12373 -7.59635,-3.54969 z"
         id="path16" />
      <path
         d="m -203.18058,500.09663 v 44.72615 h -2.12982 q 0,-9.08721 -2.20081,-17.46449 -2.12981,-8.37728 -5.96349,-14.69574 -3.83367,-6.38945 -8.80324,-9.58418 v 4.82759 q 3.97566,3.05274 6.9574,8.73225 3.05274,5.60852 4.75659,12.92089 1.70386,7.31237 1.70386,15.26368 h -2.12982 q 0,-10.79107 -3.12373,-20.02027 -3.12373,-9.3002 -8.1643,-14.12779 v 34.14806 h -2.12982 v -45.08112 q 6.53144,2.41379 11.714,10.01014 5.25355,7.59635 7.38336,17.4645 v -27.11967 z m 14.19877,42.59634 h 9.3712 v 2.12981 h -11.50101 v -42.59633 h -3.5497 v 42.59633 h -2.12981 v -44.72615 h 17.10952 v 2.12982 h -9.3002 v 17.96145 h 8.09331 v 2.12982 h -8.09331 z m 23.21499,0 h 9.37119 v 2.12981 h -11.50101 v -42.59633 h -3.54969 v 42.59633 h -2.12982 v -44.72615 h 17.10953 v 2.12982 h -9.3002 v 17.96145 h 8.0933 v 2.12982 h -8.0933 z m 15.40565,-42.59634 h 6.67343 q 3.90466,0 7.02839,1.70385 3.12373,1.70386 4.89858,5.04057 1.84584,3.33671 1.84584,8.02231 v 15.54766 q 0,4.54361 -1.70385,7.80933 -1.63286,3.19473 -4.47262,4.89858 -2.83975,1.70385 -6.46044,1.70385 h -2.12982 v -42.59633 h -3.54969 v 42.59633 h -2.12982 z m 7.80933,42.59634 q 4.6856,0 7.59635,-3.19473 2.91075,-3.19472 2.91075,-9.08722 v -15.54766 q 0,-5.89249 -2.91075,-9.01622 -2.83976,-3.12374 -7.59635,-3.5497 z"
         id="path17" />
      <path
         d="m -191.8926,608.78829 v 24.4219 h -2.12982 V 610.9181 h -3.54969 v 22.64706 h -5.04057 q -2.91075,0 -5.32454,-1.34889 -2.4138,-1.41988 -3.83367,-3.83367 -1.41988,-2.41379 -1.41988,-5.32454 v -22.1501 q 0,-5.67951 3.05274,-9.01622 3.05273,-3.40771 8.23529,-3.40771 2.48478,0 4.6146,1.1359 2.20081,1.06491 3.4787,2.91075 1.27789,1.77485 1.27789,3.90467 h -2.12981 q 0,-2.3428 -2.20082,-4.04665 -2.12981,-1.77485 -5.04056,-1.77485 -1.77485,0 -3.19473,0.49695 v 39.96957 q 1.27789,0.35497 2.48479,0.35497 h 2.91075 V 610.9181 h -2.91075 v -2.12981 z m -19.16835,14.26977 q 0,2.2718 0.99391,4.11764 1.06491,1.84585 2.83976,2.98175 v -38.05273 q -1.84585,1.27789 -2.83976,3.54969 -0.99391,2.27181 -0.99391,5.25355 z m 35.7809,-34.929 q 5.60852,0 8.80325,3.33671 3.19472,3.33672 3.19472,8.94524 v 21.93711 q 0,3.26572 -1.56186,5.89249 -1.49088,2.62678 -4.25964,4.18864 -2.69777,1.49087 -6.17647,1.49087 -3.33671,0 -6.10547,-1.49087 -2.69777,-1.56186 -4.33063,-4.18864 -1.56187,-2.62677 -1.56187,-5.89249 v -21.93711 q 0,-5.60852 3.26572,-8.94524 3.26572,-3.33671 8.73225,-3.33671 z m -3.19472,43.16429 q 1.41988,0.49696 3.19472,0.49696 1.70386,0 3.19473,-0.42597 v -40.75049 q -1.63286,-0.35497 -3.19473,-0.35497 -1.70385,0 -3.19472,0.42596 z m 13.06287,-30.88234 q 0,-3.12374 -1.20689,-5.39554 -1.1359,-2.3428 -3.33672,-3.5497 v 38.97565 q 2.12982,-1.20689 3.33672,-3.33671 1.20689,-2.12982 1.20689,-4.75659 z m -19.7363,21.93711 q 0,2.55578 1.2069,4.6856 1.20689,2.05882 3.33671,3.33671 v -38.83366 q -2.20081,1.20689 -3.40771,3.4787 -1.1359,2.2718 -1.1359,5.39554 z m 45.08116,-33.50912 v 2.12982 h -6.81542 v 42.59634 h -2.12981 v -42.59634 h -3.5497 v 42.59634 h -2.12982 v -42.59634 h -6.81541 V 588.839 Z"
         id="path18" />
    </g>
    <g
       id="g21"
       style="font-size:70.9939px;font-family:'Jam Session';-inkscape-font-specification:'Jam Session';text-align:center;text-anchor:middle;fill:#ffffff;stroke-width:16.7702;stroke-linecap:round;stroke-linejoin:round"
       aria-label="NEED&#10;NEED&#10;GOT"
       transform="translate(19.413167,501.33533)">
      <path
         d="m -203.18058,411.35426 v 44.72615 h -2.12982 q 0,-9.08721 -2.20081,-17.46449 -2.12981,-8.37728 -5.96349,-14.69574 -3.83367,-6.38945 -8.80324,-9.58418 v 4.82759 q 3.97566,3.05274 6.9574,8.73225 3.05274,5.60851 4.75659,12.92089 1.70386,7.31237 1.70386,15.26368 h -2.12982 q 0,-10.79107 -3.12373,-20.02027 -3.12373,-9.30021 -8.1643,-14.12779 v 34.14806 h -2.12982 v -45.08112 q 6.53144,2.41379 11.714,10.01014 5.25355,7.59635 7.38336,17.4645 v -27.11967 z m 14.19877,42.59634 h 9.3712 v 2.12981 h -11.50101 v -42.59633 h -3.5497 v 42.59633 h -2.12981 v -44.72615 h 17.10952 v 2.12982 h -9.3002 v 17.96145 h 8.09331 v 2.12982 h -8.09331 z m 23.21499,0 h 9.37119 v 2.12981 h -11.50101 v -42.59633 h -3.54969 v 42.59633 h -2.12982 v -44.72615 h 17.10953 v 2.12982 h -9.3002 v 17.96145 h 8.0933 v 2.12982 h -8.0933 z m 15.40565,-42.59634 h 6.67343 q 3.90466,0 7.02839,1.70385 3.12373,1.70386 4.89858,5.04057 1.84584,3.33671 1.84584,8.02231 v 15.54766 q 0,4.54361 -1.70385,7.80933 -1.63286,3.19473 -4.47262,4.89858 -2.83975,1.70385 -6.46044,1.70385 h -2.12982 v -42.59633 h -3.54969 v 42.59633 h -2.12982 z m 7.80933,42.59634 q 4.6856,0 7.59635,-3.19473 2.91075,-3.19472 2.91075,-9.08722 v -15.54766 q 0,-5.89249 -2.91075,-9.01623 -2.83976,-3.12373 -7.59635,-3.54969 z"
         id="path19"
         style="fill:#ffffff" />
      <path
         d="m -203.18058,500.09663 v 44.72615 h -2.12982 q 0,-9.08721 -2.20081,-17.46449 -2.12981,-8.37728 -5.96349,-14.69574 -3.83367,-6.38945 -8.80324,-9.58418 v 4.82759 q 3.97566,3.05274 6.9574,8.73225 3.05274,5.60852 4.75659,12.92089 1.70386,7.31237 1.70386,15.26368 h -2.12982 q 0,-10.79107 -3.12373,-20.02027 -3.12373,-9.3002 -8.1643,-14.12779 v 34.14806 h -2.12982 v -45.08112 q 6.53144,2.41379 11.714,10.01014 5.25355,7.59635 7.38336,17.4645 v -27.11967 z m 14.19877,42.59634 h 9.3712 v 2.12981 h -11.50101 v -42.59633 h -3.5497 v 42.59633 h -2.12981 v -44.72615 h 17.10952 v 2.12982 h -9.3002 v 17.96145 h 8.09331 v 2.12982 h -8.09331 z m 23.21499,0 h 9.37119 v 2.12981 h -11.50101 v -42.59633 h -3.54969 v 42.59633 h -2.12982 v -44.72615 h 17.10953 v 2.12982 h -9.3002 v 17.96145 h 8.0933 v 2.12982 h -8.0933 z m 15.40565,-42.59634 h 6.67343 q 3.90466,0 7.02839,1.70385 3.12373,1.70386 4.89858,5.04057 1.84584,3.33671 1.84584,8.02231 v 15.54766 q 0,4.54361 -1.70385,7.80933 -1.63286,3.19473 -4.47262,4.89858 -2.83975,1.70385 -6.46044,1.70385 h -2.12982 v -42.59633 h -3.54969 v 42.59633 h -2.12982 z m 7.80933,42.59634 q 4.6856,0 7.59635,-3.19473 2.91075,-3.19472 2.91075,-9.08722 v -15.54766 q 0,-5.89249 -2.91075,-9.01622 -2.83976,-3.12374 -7.59635,-3.5497 z"
         id="path20"
         style="fill:#ffffff" />
      <path
         d="m -191.8926,608.78829 v 24.4219 h -2.12982 V 610.9181 h -3.54969 v 22.64706 h -5.04057 q -2.91075,0 -5.32454,-1.34889 -2.4138,-1.41988 -3.83367,-3.83367 -1.41988,-2.41379 -1.41988,-5.32454 v -22.1501 q 0,-5.67951 3.05274,-9.01622 3.05273,-3.40771 8.23529,-3.40771 2.48478,0 4.6146,1.1359 2.20081,1.06491 3.4787,2.91075 1.27789,1.77485 1.27789,3.90467 h -2.12981 q 0,-2.3428 -2.20082,-4.04665 -2.12981,-1.77485 -5.04056,-1.77485 -1.77485,0 -3.19473,0.49695 v 39.96957 q 1.27789,0.35497 2.48479,0.35497 h 2.91075 V 610.9181 h -2.91075 v -2.12981 z m -19.16835,14.26977 q 0,2.2718 0.99391,4.11764 1.06491,1.84585 2.83976,2.98175 v -38.05273 q -1.84585,1.27789 -2.83976,3.54969 -0.99391,2.27181 -0.99391,5.25355 z m 35.7809,-34.929 q 5.60852,0 8.80325,3.33671 3.19472,3.33672 3.19472,8.94524 v 21.93711 q 0,3.26572 -1.56186,5.89249 -1.49088,2.62678 -4.25964,4.18864 -2.69777,1.49087 -6.17647,1.49087 -3.33671,0 -6.10547,-1.49087 -2.69777,-1.56186 -4.33063,-4.18864 -1.56187,-2.62677 -1.56187,-5.89249 v -21.93711 q 0,-5.60852 3.26572,-8.94524 3.26572,-3.33671 8.73225,-3.33671 z m -3.19472,43.16429 q 1.41988,0.49696 3.19472,0.49696 1.70386,0 3.19473,-0.42597 v -40.75049 q -1.63286,-0.35497 -3.19473,-0.35497 -1.70385,0 -3.19472,0.42596 z m 13.06287,-30.88234 q 0,-3.12374 -1.20689,-5.39554 -1.1359,-2.3428 -3.33672,-3.5497 v 38.97565 q 2.12982,-1.20689 3.33672,-3.33671 1.20689,-2.12982 1.20689,-4.75659 z m -19.7363,21.93711 q 0,2.55578 1.2069,4.6856 1.20689,2.05882 3.33671,3.33671 v -38.83366 q -2.20081,1.20689 -3.40771,3.4787 -1.1359,2.2718 -1.1359,5.39554 z m 45.08116,-33.50912 v 2.12982 h -6.81542 v 42.59634 h -2.12981 v -42.59634 h -3.5497 v 42.59634 h -2.12982 v -42.59634 h -6.81541 V 588.839 Z"
         id="path21"
         style="fill:#ffffff" />
    </g>
    <g
       id="g24"
       style="font-size:70.9939px;font-family:'Jam Session';-inkscape-font-specification:'Jam Session';text-align:center;text-anchor:middle;fill:#b61e1e;stroke-width:16.7702;stroke-linecap:round;stroke-linejoin:round;fill-opacity:1"
       aria-label="NEED&#10;NEED&#10;GOT"
       transform="translate(-37.417734,163.14132)">
      <path
         d="m -203.18058,411.35426 v 44.72615 h -2.12982 q 0,-9.08721 -2.20081,-17.46449 -2.12981,-8.37728 -5.96349,-14.69574 -3.83367,-6.38945 -8.80324,-9.58418 v 4.82759 q 3.97566,3.05274 6.9574,8.73225 3.05274,5.60851 4.75659,12.92089 1.70386,7.31237 1.70386,15.26368 h -2.12982 q 0,-10.79107 -3.12373,-20.02027 -3.12373,-9.30021 -8.1643,-14.12779 v 34.14806 h -2.12982 v -45.08112 q 6.53144,2.41379 11.714,10.01014 5.25355,7.59635 7.38336,17.4645 v -27.11967 z m 14.19877,42.59634 h 9.3712 v 2.12981 h -11.50101 v -42.59633 h -3.5497 v 42.59633 h -2.12981 v -44.72615 h 17.10952 v 2.12982 h -9.3002 v 17.96145 h 8.09331 v 2.12982 h -8.09331 z m 23.21499,0 h 9.37119 v 2.12981 h -11.50101 v -42.59633 h -3.54969 v 42.59633 h -2.12982 v -44.72615 h 17.10953 v 2.12982 h -9.3002 v 17.96145 h 8.0933 v 2.12982 h -8.0933 z m 15.40565,-42.59634 h 6.67343 q 3.90466,0 7.02839,1.70385 3.12373,1.70386 4.89858,5.04057 1.84584,3.33671 1.84584,8.02231 v 15.54766 q 0,4.54361 -1.70385,7.80933 -1.63286,3.19473 -4.47262,4.89858 -2.83975,1.70385 -6.46044,1.70385 h -2.12982 v -42.59633 h -3.54969 v 42.59633 h -2.12982 z m 7.80933,42.59634 q 4.6856,0 7.59635,-3.19473 2.91075,-3.19472 2.91075,-9.08722 v -15.54766 q 0,-5.89249 -2.91075,-9.01623 -2.83976,-3.12373 -7.59635,-3.54969 z"
         id="path22"
         style="fill:#b61e1e;fill-opacity:1" />
      <path
         d="m -203.18058,500.09663 v 44.72615 h -2.12982 q 0,-9.08721 -2.20081,-17.46449 -2.12981,-8.37728 -5.96349,-14.69574 -3.83367,-6.38945 -8.80324,-9.58418 v 4.82759 q 3.97566,3.05274 6.9574,8.73225 3.05274,5.60852 4.75659,12.92089 1.70386,7.31237 1.70386,15.26368 h -2.12982 q 0,-10.79107 -3.12373,-20.02027 -3.12373,-9.3002 -8.1643,-14.12779 v 34.14806 h -2.12982 v -45.08112 q 6.53144,2.41379 11.714,10.01014 5.25355,7.59635 7.38336,17.4645 v -27.11967 z m 14.19877,42.59634 h 9.3712 v 2.12981 h -11.50101 v -42.59633 h -3.5497 v 42.59633 h -2.12981 v -44.72615 h 17.10952 v 2.12982 h -9.3002 v 17.96145 h 8.09331 v 2.12982 h -8.09331 z m 23.21499,0 h 9.37119 v 2.12981 h -11.50101 v -42.59633 h -3.54969 v 42.59633 h -2.12982 v -44.72615 h 17.10953 v 2.12982 h -9.3002 v 17.96145 h 8.0933 v 2.12982 h -8.0933 z m 15.40565,-42.59634 h 6.67343 q 3.90466,0 7.02839,1.70385 3.12373,1.70386 4.89858,5.04057 1.84584,3.33671 1.84584,8.02231 v 15.54766 q 0,4.54361 -1.70385,7.80933 -1.63286,3.19473 -4.47262,4.89858 -2.83975,1.70385 -6.46044,1.70385 h -2.12982 v -42.59633 h -3.54969 v 42.59633 h -2.12982 z m 7.80933,42.59634 q 4.6856,0 7.59635,-3.19473 2.91075,-3.19472 2.91075,-9.08722 v -15.54766 q 0,-5.89249 -2.91075,-9.01622 -2.83976,-3.12374 -7.59635,-3.5497 z"
         id="path23"
         style="fill:#b61e1e;fill-opacity:1" />
      <path
         d="m -191.8926,608.78829 v 24.4219 h -2.12982 V 610.9181 h -3.54969 v 22.64706 h -5.04057 q -2.91075,0 -5.32454,-1.34889 -2.4138,-1.41988 -3.83367,-3.83367 -1.41988,-2.41379 -1.41988,-5.32454 v -22.1501 q 0,-5.67951 3.05274,-9.01622 3.05273,-3.40771 8.23529,-3.40771 2.48478,0 4.6146,1.1359 2.20081,1.06491 3.4787,2.91075 1.27789,1.77485 1.27789,3.90467 h -2.12981 q 0,-2.3428 -2.20082,-4.04665 -2.12981,-1.77485 -5.04056,-1.77485 -1.77485,0 -3.19473,0.49695 v 39.96957 q 1.27789,0.35497 2.48479,0.35497 h 2.91075 V 610.9181 h -2.91075 v -2.12981 z m -19.16835,14.26977 q 0,2.2718 0.99391,4.11764 1.06491,1.84585 2.83976,2.98175 v -38.05273 q -1.84585,1.27789 -2.83976,3.54969 -0.99391,2.27181 -0.99391,5.25355 z m 35.7809,-34.929 q 5.60852,0 8.80325,3.33671 3.19472,3.33672 3.19472,8.94524 v 21.93711 q 0,3.26572 -1.56186,5.89249 -1.49088,2.62678 -4.25964,4.18864 -2.69777,1.49087 -6.17647,1.49087 -3.33671,0 -6.10547,-1.49087 -2.69777,-1.56186 -4.33063,-4.18864 -1.56187,-2.62677 -1.56187,-5.89249 v -21.93711 q 0,-5.60852 3.26572,-8.94524 3.26572,-3.33671 8.73225,-3.33671 z m -3.19472,43.16429 q 1.41988,0.49696 3.19472,0.49696 1.70386,0 3.19473,-0.42597 v -40.75049 q -1.63286,-0.35497 -3.19473,-0.35497 -1.70385,0 -3.19472,0.42596 z m 13.06287,-30.88234 q 0,-3.12374 -1.20689,-5.39554 -1.1359,-2.3428 -3.33672,-3.5497 v 38.97565 q 2.12982,-1.20689 3.33672,-3.33671 1.20689,-2.12982 1.20689,-4.75659 z m -19.7363,21.93711 q 0,2.55578 1.2069,4.6856 1.20689,2.05882 3.33671,3.33671 v -38.83366 q -2.20081,1.20689 -3.40771,3.4787 -1.1359,2.2718 -1.1359,5.39554 z m 45.08116,-33.50912 v 2.12982 h -6.81542 v 42.59634 h -2.12981 v -42.59634 h -3.5497 v 42.59634 h -2.12982 v -42.59634 h -6.81541 V 588.839 Z"
         id="path24"
         style="fill:#b61e1e;fill-opacity:1" />
    </g>
    <g
       id="g27"
       style="font-size:70.9939px;font-family:'Jam Session';-inkscape-font-specification:'Jam Session';text-align:center;text-anchor:middle;fill:#cc4747;fill-opacity:1;stroke-width:16.7702;stroke-linecap:round;stroke-linejoin:round"
       aria-label="NEED&#10;NEED&#10;GOT"
       transform="translate(-42.982233,330.46435)">
      <path
         d="m -203.18058,411.35426 v 44.72615 h -2.12982 q 0,-9.08721 -2.20081,-17.46449 -2.12981,-8.37728 -5.96349,-14.69574 -3.83367,-6.38945 -8.80324,-9.58418 v 4.82759 q 3.97566,3.05274 6.9574,8.73225 3.05274,5.60851 4.75659,12.92089 1.70386,7.31237 1.70386,15.26368 h -2.12982 q 0,-10.79107 -3.12373,-20.02027 -3.12373,-9.30021 -8.1643,-14.12779 v 34.14806 h -2.12982 v -45.08112 q 6.53144,2.41379 11.714,10.01014 5.25355,7.59635 7.38336,17.4645 v -27.11967 z m 14.19877,42.59634 h 9.3712 v 2.12981 h -11.50101 v -42.59633 h -3.5497 v 42.59633 h -2.12981 v -44.72615 h 17.10952 v 2.12982 h -9.3002 v 17.96145 h 8.09331 v 2.12982 h -8.09331 z m 23.21499,0 h 9.37119 v 2.12981 h -11.50101 v -42.59633 h -3.54969 v 42.59633 h -2.12982 v -44.72615 h 17.10953 v 2.12982 h -9.3002 v 17.96145 h 8.0933 v 2.12982 h -8.0933 z m 15.40565,-42.59634 h 6.67343 q 3.90466,0 7.02839,1.70385 3.12373,1.70386 4.89858,5.04057 1.84584,3.33671 1.84584,8.02231 v 15.54766 q 0,4.54361 -1.70385,7.80933 -1.63286,3.19473 -4.47262,4.89858 -2.83975,1.70385 -6.46044,1.70385 h -2.12982 v -42.59633 h -3.54969 v 42.59633 h -2.12982 z m 7.80933,42.59634 q 4.6856,0 7.59635,-3.19473 2.91075,-3.19472 2.91075,-9.08722 v -15.54766 q 0,-5.89249 -2.91075,-9.01623 -2.83976,-3.12373 -7.59635,-3.54969 z"
         id="path25"
         style="fill:#cc4747;fill-opacity:1" />
      <path
         d="m -203.18058,500.09663 v 44.72615 h -2.12982 q 0,-9.08721 -2.20081,-17.46449 -2.12981,-8.37728 -5.96349,-14.69574 -3.83367,-6.38945 -8.80324,-9.58418 v 4.82759 q 3.97566,3.05274 6.9574,8.73225 3.05274,5.60852 4.75659,12.92089 1.70386,7.31237 1.70386,15.26368 h -2.12982 q 0,-10.79107 -3.12373,-20.02027 -3.12373,-9.3002 -8.1643,-14.12779 v 34.14806 h -2.12982 v -45.08112 q 6.53144,2.41379 11.714,10.01014 5.25355,7.59635 7.38336,17.4645 v -27.11967 z m 14.19877,42.59634 h 9.3712 v 2.12981 h -11.50101 v -42.59633 h -3.5497 v 42.59633 h -2.12981 v -44.72615 h 17.10952 v 2.12982 h -9.3002 v 17.96145 h 8.09331 v 2.12982 h -8.09331 z m 23.21499,0 h 9.37119 v 2.12981 h -11.50101 v -42.59633 h -3.54969 v 42.59633 h -2.12982 v -44.72615 h 17.10953 v 2.12982 h -9.3002 v 17.96145 h 8.0933 v 2.12982 h -8.0933 z m 15.40565,-42.59634 h 6.67343 q 3.90466,0 7.02839,1.70385 3.12373,1.70386 4.89858,5.04057 1.84584,3.33671 1.84584,8.02231 v 15.54766 q 0,4.54361 -1.70385,7.80933 -1.63286,3.19473 -4.47262,4.89858 -2.83975,1.70385 -6.46044,1.70385 h -2.12982 v -42.59633 h -3.54969 v 42.59633 h -2.12982 z m 7.80933,42.59634 q 4.6856,0 7.59635,-3.19473 2.91075,-3.19472 2.91075,-9.08722 v -15.54766 q 0,-5.89249 -2.91075,-9.01622 -2.83976,-3.12374 -7.59635,-3.5497 z"
         id="path26"
         style="fill:#cc4747;fill-opacity:1" />
      <path
         d="m -191.8926,608.78829 v 24.4219 h -2.12982 V 610.9181 h -3.54969 v 22.64706 h -5.04057 q -2.91075,0 -5.32454,-1.34889 -2.4138,-1.41988 -3.83367,-3.83367 -1.41988,-2.41379 -1.41988,-5.32454 v -22.1501 q 0,-5.67951 3.05274,-9.01622 3.05273,-3.40771 8.23529,-3.40771 2.48478,0 4.6146,1.1359 2.20081,1.06491 3.4787,2.91075 1.27789,1.77485 1.27789,3.90467 h -2.12981 q 0,-2.3428 -2.20082,-4.04665 -2.12981,-1.77485 -5.04056,-1.77485 -1.77485,0 -3.19473,0.49695 v 39.96957 q 1.27789,0.35497 2.48479,0.35497 h 2.91075 V 610.9181 h -2.91075 v -2.12981 z m -19.16835,14.26977 q 0,2.2718 0.99391,4.11764 1.06491,1.84585 2.83976,2.98175 v -38.05273 q -1.84585,1.27789 -2.83976,3.54969 -0.99391,2.27181 -0.99391,5.25355 z m 35.7809,-34.929 q 5.60852,0 8.80325,3.33671 3.19472,3.33672 3.19472,8.94524 v 21.93711 q 0,3.26572 -1.56186,5.89249 -1.49088,2.62678 -4.25964,4.18864 -2.69777,1.49087 -6.17647,1.49087 -3.33671,0 -6.10547,-1.49087 -2.69777,-1.56186 -4.33063,-4.18864 -1.56187,-2.62677 -1.56187,-5.89249 v -21.93711 q 0,-5.60852 3.26572,-8.94524 3.26572,-3.33671 8.73225,-3.33671 z m -3.19472,43.16429 q 1.41988,0.49696 3.19472,0.49696 1.70386,0 3.19473,-0.42597 v -40.75049 q -1.63286,-0.35497 -3.19473,-0.35497 -1.70385,0 -3.19472,0.42596 z m 13.06287,-30.88234 q 0,-3.12374 -1.20689,-5.39554 -1.1359,-2.3428 -3.33672,-3.5497 v 38.97565 q 2.12982,-1.20689 3.33672,-3.33671 1.20689,-2.12982 1.20689,-4.75659 z m -19.7363,21.93711 q 0,2.55578 1.2069,4.6856 1.20689,2.05882 3.33671,3.33671 v -38.83366 q -2.20081,1.20689 -3.40771,3.4787 -1.1359,2.2718 -1.1359,5.39554 z m 45.08116,-33.50912 v 2.12982 h -6.81542 v 42.59634 h -2.12981 v -42.59634 h -3.5497 v 42.59634 h -2.12982 v -42.59634 h -6.81541 V 588.839 Z"
         id="path27"
         style="fill:#cc4747;fill-opacity:1" />
    </g>
  </g>
</svg>
